<?xml version="1.0" encoding="utf-8"?>
<!-- Generator: Adobe Illustrator 21.1.0, SVG Export Plug-In . SVG Version: 6.00 Build 0)  -->
<svg version="1.1" id="Capa_1" xmlns="http://www.w3.org/2000/svg" xmlns:xlink="http://www.w3.org/1999/xlink" x="0px" y="0px"
	 viewBox="0 0 511 511" style="enable-background:new 0 0 511 511;" xml:space="preserve">
<style type="text/css">
	.st0{fill:#333333;}
</style>
<g>
	<path class="st0" d="M220.7,176.9c-21.3,0-38.6,17.3-38.6,38.6v156.2c0,4,3.3,7.3,7.3,7.3c4,0,7.3-3.3,7.3-7.3V215.5
		c0-13.2,10.7-23.9,23.9-23.9s23.9,10.7,23.9,23.9v15.6c0,4,3.3,7.3,7.3,7.3c4,0,7.3-3.3,7.3-7.3v-15.6
		C259.3,194.2,242,176.9,220.7,176.9z"/>
	<path class="st0" d="M252,301.9c-4,0-7.3,3.3-7.3,7.3V403c0,13.2-10.7,23.9-23.9,23.9s-23.9-10.7-23.9-23.9c0-4-3.3-7.3-7.3-7.3
		c-4,0-7.3,3.3-7.3,7.3c0,21.3,17.3,38.6,38.6,38.6s38.6-17.3,38.6-38.6v-93.7C259.3,305.2,256,301.9,252,301.9z"/>
	<path class="st0" d="M252,255c-4,0-7.3,3.3-7.3,7.3V278c0,4,3.3,7.3,7.3,7.3c4,0,7.3-3.3,7.3-7.3v-15.6
		C259.3,258.3,256,255,252,255z"/>
	<path class="st0" d="M314.5,176.9c-21.3,0-38.6,17.3-38.6,38.6v156.2c0,4,3.3,7.3,7.3,7.3s7.3-3.3,7.3-7.3V215.5
		c0-13.2,10.7-23.9,23.9-23.9s23.9,10.7,23.9,23.9v15.6c0,4,3.3,7.3,7.3,7.3c4,0,7.3-3.3,7.3-7.3v-15.6
		C353,194.2,335.7,176.9,314.5,176.9z"/>
	<path class="st0" d="M345.7,301.9c-4,0-7.3,3.3-7.3,7.3V403c0,13.2-10.7,23.9-23.9,23.9s-23.9-10.7-23.9-23.9c0-4-3.3-7.3-7.3-7.3
		s-7.3,3.3-7.3,7.3c0,21.3,17.3,38.6,38.6,38.6c21.3,0,38.6-17.3,38.6-38.6v-93.7C353,305.2,349.8,301.9,345.7,301.9z"/>
	<path class="st0" d="M345.7,255c-4,0-7.3,3.3-7.3,7.3V278c0,4,3.3,7.3,7.3,7.3c4,0,7.3-3.3,7.3-7.3v-15.6
		C353,258.3,349.8,255,345.7,255z"/>
	<path class="st0" d="M127,176.9c-21.3,0-38.6,17.3-38.6,38.6v156.2c0,4,3.3,7.3,7.3,7.3c4,0,7.3-3.3,7.3-7.3V215.5
		c0-13.2,10.7-23.9,23.9-23.9c13.2,0,23.9,10.7,23.9,23.9v15.6c0,4,3.3,7.3,7.3,7.3s7.3-3.3,7.3-7.3v-15.6
		C165.6,194.2,148.3,176.9,127,176.9z"/>
	<path class="st0" d="M158.3,301.9c-4,0-7.3,3.3-7.3,7.3V403c0,13.2-10.7,23.9-23.9,23.9c-13.2,0-23.9-10.7-23.9-23.9
		c0-4-3.3-7.3-7.3-7.3c-4,0-7.3,3.3-7.3,7.3c0,21.3,17.3,38.6,38.6,38.6s38.6-17.3,38.6-38.6v-93.7
		C165.6,305.2,162.3,301.9,158.3,301.9z"/>
	<path class="st0" d="M158.3,255c-4,0-7.3,3.3-7.3,7.3V278c0,4,3.3,7.3,7.3,7.3s7.3-3.3,7.3-7.3v-15.6
		C165.6,258.3,162.3,255,158.3,255z"/>
	<path class="st0" d="M423.8,192.6h-39.5v-37.9c4.8-4.2,7.8-10.4,7.8-17.2c0-6.9-3-13-7.8-17.3c-0.8-22.6-17.8-41.1-39.7-44.3
		c0.5-2.9,0.7-5.8,0.7-8.8c0-29.9-24.3-54.2-54.2-54.2c-10.2,0-20.2,2.9-28.7,8.3c-11.4-10.3-26.2-16.1-41.6-16.1
		c-19.2,0-37.4,9.1-49,24.1c-8.7-5.5-18.7-8.5-29.1-8.5c-29.9,0-54.2,24.3-54.2,54.2c0,1,0,2,0.1,3.1c-18,6.1-30.6,22.8-31.3,42.2
		c-4.8,4.2-7.8,10.4-7.8,17.3c0,6.9,3,13,7.8,17.2V442c0,14.4,10,26.6,23.4,29.9v9.2c0,12.7,10.3,22.9,22.9,22.9h234.3
		c12.7,0,22.9-10.3,22.9-22.9v-9.2c13.4-3.3,23.4-15.4,23.4-29.9v-31.7h39.5c29.9,0,54.2-24.3,54.2-54.2V246.7
		C478,216.9,453.7,192.6,423.8,192.6z M384.3,238.4h39.5c4.6,0,8.3,3.7,8.3,8.3v109.3c0,4.6-3.7,8.3-8.3,8.3h-39.5V238.4z M64,137.4
		c0-4.6,3.7-8.3,8.3-8.3h296.8c4.6,0,8.3,3.7,8.3,8.3c0,4.6-3.7,8.3-8.3,8.3H72.3C67.8,145.7,64,142,64,137.4z M97.9,90.6
		c1.9-0.3,3.6-1.4,4.7-3c1.1-1.6,1.5-3.6,1.2-5.5c-0.5-2.5-0.7-4.9-0.7-7.2c0-21.8,17.7-39.5,39.5-39.5c9.6,0,18.8,3.5,26,9.8
		c1.6,1.4,3.8,2.1,6,1.7c2.2-0.4,4-1.7,5.1-3.5c8.5-14.6,24.2-23.6,40.9-23.6c13.4,0,26.3,5.8,35.3,15.9c2.6,2.9,7,3.3,10.1,0.8
		c7.1-5.8,15.7-8.9,24.9-8.9c21.8,0,39.5,17.7,39.5,39.5c0,4.5-0.8,9-2.4,13.4c-0.8,2.3-0.4,4.9,1,6.9c1.5,2,3.9,3.1,6.4,2.9
		c0.5,0,1.1-0.1,1.6-0.2c0.2,0,0.6-0.1,0.7-0.1c15,0,27.6,10.4,30.9,24.4H72.7C75.6,102.4,85.3,92.9,97.9,90.6z M369.6,442
		c0,8.9-7.2,16.1-16.1,16.1h-23.4c-4,0-7.3,3.3-7.3,7.3s3.3,7.3,7.3,7.3h16.1v8.3c0,4.6-3.7,8.3-8.3,8.3H103.6
		c-4.6,0-8.3-3.7-8.3-8.3v-8.3H252c4,0,7.3-3.3,7.3-7.3s-3.3-7.3-7.3-7.3H88c-8.9,0-16.1-7.2-16.1-16.1V160.3c0.2,0,0.3,0,0.5,0
		h296.8c0.2,0,0.3,0,0.5,0V442z M463.4,356.1c0,21.8-17.7,39.5-39.5,39.5h-39.5V379h39.5c12.7,0,22.9-10.3,22.9-22.9V246.7
		c0-12.7-10.3-22.9-22.9-22.9h-39.5v-16.6h39.5c21.8,0,39.5,17.7,39.5,39.5V356.1z"/>
	<path class="st0" d="M291,58.8c4.6,0,8.3,3.7,8.3,8.3c0,4,3.3,7.3,7.3,7.3s7.3-3.3,7.3-7.3c0-12.7-10.3-22.9-22.9-22.9
		c-4,0-7.3,3.3-7.3,7.3S287,58.8,291,58.8z"/>
	<path class="st0" d="M220.7,51c8.9,0,16.1,7.2,16.1,16.1c0,4,3.3,7.3,7.3,7.3c4,0,7.3-3.3,7.3-7.3c0-17-13.8-30.8-30.8-30.8
		c-4,0-7.3,3.3-7.3,7.3S216.7,51,220.7,51z"/>
	<path class="st0" d="M298.8,458.1h-15.6c-4,0-7.3,3.3-7.3,7.3s3.3,7.3,7.3,7.3h15.6c4,0,7.3-3.3,7.3-7.3S302.9,458.1,298.8,458.1z"
		/>
</g>
</svg>
