<?xml version="1.0" encoding="utf-8"?>
<!-- Generator: Adobe Illustrator 21.1.0, SVG Export Plug-In . SVG Version: 6.00 Build 0)  -->
<svg version="1.1" id="Capa_1" xmlns="http://www.w3.org/2000/svg" xmlns:xlink="http://www.w3.org/1999/xlink" x="0px" y="0px"
	 viewBox="0 0 512 512" style="enable-background:new 0 0 512 512;" xml:space="preserve">
<style type="text/css">
	.st0{fill:#333333;}
</style>
<g>
	<path class="st0" d="M239.7,402.5c-4.5,0-8.2,3.7-8.2,8.2c0,4.5,3.7,8.2,8.2,8.2c4.5,0,8.2-3.7,8.2-8.2
		C247.8,406.2,244.2,402.5,239.7,402.5z"/>
	<path class="st0" d="M272.3,425.4c-4.5,0-8.2,3.7-8.2,8.2s3.7,8.2,8.2,8.2c4.5,0,8.2-3.7,8.2-8.2S276.8,425.4,272.3,425.4z"/>
	<path class="st0" d="M272.3,316.5c-4.5,0-8.2,3.7-8.2,8.2c0,4.5,3.7,8.2,8.2,8.2c4.5,0,8.2-3.7,8.2-8.2
		C280.5,320.2,276.8,316.5,272.3,316.5z"/>
	<path class="st0" d="M291.7,252.3c-3,2.4-4.6,3.7-8.5,3.7s-5.5-1.2-8.5-3.7c-3.8-3.1-9-7.2-18.7-7.2s-14.9,4.2-18.7,7.2
		c-3,2.4-4.6,3.7-8.5,3.7c-3.9,0-5.5-1.2-8.5-3.7c-3.8-3.1-9-7.2-18.7-7.2c-4.5,0-8.2,3.7-8.2,8.2l0,217.9c0,2.6,1.3,5.1,3.4,6.6
		c0.5,0.4,1.1,0.7,1.7,1c1,0.4,2.1,0.6,3.1,0.6c0,0,108.8,0,108.8,0c3.5,0,6.4-2.2,7.6-5.2c0.4-1,0.6-2,0.6-3l0-217.8
		c0-4.5-3.7-8.2-8.2-8.2C300.8,245.1,295.6,249.3,291.7,252.3z M209.7,463l0-198.2c0.1,0.1,0.2,0.2,0.3,0.3c3.8,3.1,9,7.2,18.7,7.2
		c9.7,0,14.9-4.2,18.7-7.2c3-2.4,4.6-3.7,8.5-3.7c3.9,0,5.5,1.2,8.5,3.7c3.8,3.1,9,7.2,18.7,7.2c9.7,0,14.9-4.2,18.7-7.2
		c0.1-0.1,0.2-0.2,0.3-0.3l0,198.2L209.7,463z"/>
	<path class="st0" d="M304.1,174.1l-9.7-119.3l8.2-8.2c2.2-2.2,3-5.4,2-8.4L293.7,5.6C292.6,2.2,289.5,0,286,0H226
		c-3.5,0-6.6,2.2-7.8,5.6l-10.9,32.7c-1,2.9-0.2,6.2,2,8.4c0,0,5,5,8.2,8.2l-9.7,119.3c-28.9,15.6-47.3,46.1-47.3,79.1v217.9
		c0,22.5,18.3,40.9,40.9,40.9h108.9c22.5,0,40.9-18.3,40.9-40.9V253.3C351.3,220.3,332.9,189.7,304.1,174.1z M335,471.1
		c0,13.5-11,24.5-24.5,24.5H201.5c-13.5,0-24.5-11-24.5-24.5V253.3c0-28.3,16.6-54.4,42.2-66.5c2.6-1.2,4.4-3.8,4.7-6.7l9.7-120.1
		h19.7c4.5,0,8.2-3.7,8.2-8.2s-3.7-8.2-8.2-8.2h-23.8l-4.9-4.9l7.4-22.3h48.1l7.4,22.3l-7.3,7.3c-1.7,1.7-2.6,4-2.4,6.4L288.1,180
		c0.2,2.9,2,5.5,4.7,6.7c25.6,12.1,42.2,38.2,42.2,66.5L335,471.1L335,471.1z"/>
</g>
</svg>
