<?xml version="1.0" encoding="utf-8"?>
<!-- Generator: Adobe Illustrator 21.1.0, SVG Export Plug-In . SVG Version: 6.00 Build 0)  -->
<svg version="1.1" id="Capa_1" xmlns="http://www.w3.org/2000/svg" xmlns:xlink="http://www.w3.org/1999/xlink" x="0px" y="0px"
	 viewBox="0 0 613.1 613.1" style="enable-background:new 0 0 613.1 613.1;" xml:space="preserve">
<style type="text/css">
	.st0{fill:#333333;}
</style>
<g>
	<path class="st0" d="M473.5,273l-10.1-21.9l0,0L473.5,273L473.5,273z M172.4,289.8c-6.9-3.2-15.1-0.2-18.2,6.7L87.1,442.2
		c-3.2,6.9-0.2,15.1,6.7,18.2c1.9,0.9,3.8,1.3,5.7,1.3c5.2,0,10.2-3,12.5-8L179.2,308C182.3,301.1,179.3,293,172.4,289.8z
		 M585.2,442.9l-2.6,1.2l0.7,1.6c5.4,11.7,5.9,24.7,1.4,36.8c-4.5,12.1-13.3,21.7-25,27l-117.6,54.2c-6.4,2.9-13.1,4.4-20.1,4.4
		c0,0,0,0,0,0c-18.7,0-35.9-11-43.7-28l-71.9-156.1l-71.5,155.3c-7.8,17-25,28-43.7,28c-7,0-13.7-1.5-20.1-4.4L53.4,508.7
		c-11.7-5.4-20.6-15-25-27s-3.9-25.1,1.4-36.8l0.7-1.6l-2.6-1.2C3.9,431-6.7,402.3,4.4,378.2l55.4-120.2c5.4-11.7,15-20.6,27-25
		c12.1-4.5,25.1-3.9,36.8,1.4l2.6,1.2l4.3-9.4l11-23.8c11.4-24.8,40.8-35.6,65.6-24.2c0.2,0.1,0.5,0.2,0.7,0.3
		c17.4-10.1,38.6-11.2,57.3-2.5c16.3,7.5,28.3,21.3,33.5,38c3.1,0.6,6.2,1.4,9.2,2.4c2.2-0.7,4.4-1.2,6.7-1.6
		c5.2-16.7,17.2-30.5,33.5-38c18.7-8.6,39.9-7.5,57.3,2.5c0.2-0.1,0.5-0.2,0.7-0.3c12-5.5,25.4-6.1,37.8-1.5
		c12.4,4.6,22.3,13.7,27.8,25.7l11,23.8c0,0,0,0,0,0l4.3,9.4l2.6-1.2c11.7-5.4,24.7-5.9,36.8-1.4c12.1,4.5,21.7,13.3,27,25
		l55.4,120.2C619.8,403.2,609.3,431.8,585.2,442.9z M364.9,244.2c-4.3,6.2-12.9,7.8-19.1,3.5c-1.1-0.8-2.3-1.5-3.6-2.1
		c1.5,2.7,2.7,5.5,3.8,8.4c2.3,6.3,3.6,12.7,3.8,19.2l102-47l-5.2-11.3c-2.5-5.3-6.8-9.4-12.3-11.4c-5.5-2-11.5-1.8-16.8,0.7
		c-1.5,0.7-2.8,1.5-4.1,2.4c-2.4,1.9-5.4,3-8.6,3c-3.3,0-6.3-1.2-8.8-3.1c-10.4-8.4-24.5-10.1-36.6-4.5c-6.9,3.2-12.3,8.3-15.9,14.6
		c6.3,1.9,12.3,4.7,17.9,8.6C367.7,229.4,369.3,238,364.9,244.2z M42.1,418.3l72.6-157.6l-2.6-1.2c-10.3-4.8-22.6-0.2-27.4,10.1
		L29.4,389.7c-4.8,10.3-0.2,22.6,10.1,27.4L42.1,418.3z M304.8,321.7l-13.7-6.3l-0.9,0.4l-0.5-1.1l-11.6-5.4l-7.6-3.5l-120.7-55.6h0
		l-5,10.9v12h0v-12l-5,10.9L67.1,429.8l-3.2,6.9l-8.3,18.1l-0.7,1.6c-2.3,5-2.5,10.6-0.6,15.8c1.9,5.2,5.7,9.3,10.7,11.6l117.6,54.2
		c2.7,1.3,5.6,1.9,8.6,1.9c8,0,15.4-4.7,18.8-12l81.4-176.7l7.6-16.4l4.5-9.7L304.8,321.7z M320.7,286.6c2.5-7.5,2.4-15.6-0.4-23.2
		c-2.5-6.9-7.1-12.7-13.1-16.8c-1.6-1.1-3.3-2.1-5.2-3c-3.1-1.4-6.4-2.4-9.8-2.8c-6.8-0.9-13.8,0.1-20,3.1c-1.7,0.8-3.4,1.7-4.9,2.8
		c-6.2,4.3-14.8,2.8-19.1-3.5c-4.3-6.2-2.8-14.8,3.5-19.1c5.5-3.8,11.6-6.7,17.9-8.6c-3.6-6.3-9.1-11.5-15.9-14.6
		c-12.2-5.6-26.2-3.9-36.6,4.5c-0.8,0.7-1.7,1.2-2.6,1.7c-4.9,2.5-10.7,1.7-14.8-1.6c-1.2-0.9-2.6-1.7-4-2.4
		c-11-5.1-24.1-0.2-29.1,10.8l-5.2,11.3l102.1,47l13.7,6.3l14.9,6.9l15.6,7.2L320.7,286.6z M558.3,457.2l-0.7-1.6l0,0l0,0l-3-6.6
		l-81.1-176l-10.1-21.9l0,0l-121.7,56.1l-6.2,13.5l-14,30.3l81.8,177.5c3.4,7.3,10.7,12,18.7,12c0,0,0,0,0,0c3,0,5.9-0.6,8.6-1.9
		l117.6-54.2c5-2.3,8.8-6.4,10.7-11.6C560.8,467.8,560.6,462.2,558.3,457.2z M583.8,390.6l-55.4-120.2c-4.8-10.3-17-14.9-27.4-10.1
		l-2.6,1.2l72.6,157.6l2.6-1.2C584,413.2,588.5,400.9,583.8,390.6z M415.2,317.5c-3.2-6.9-11.3-9.9-18.2-6.7
		c-6.9,3.2-9.9,11.3-6.7,18.2l67.1,145.7c2.3,5,7.3,8,12.5,8c1.9,0,3.9-0.4,5.7-1.3c6.9-3.2,9.9-11.3,6.7-18.2L415.2,317.5z
		 M459,297.4c-3.2-6.9-11.3-9.9-18.2-6.7c-6.9,3.2-9.9,11.3-6.7,18.2l67.1,145.7c2.3,5,7.3,8,12.5,8c1.9,0,3.9-0.4,5.7-1.3
		c6.9-3.2,9.9-11.3,6.7-18.2L459,297.4z M371.4,337.7c-3.2-6.9-11.3-9.9-18.2-6.7c-6.9,3.2-9.9,11.3-6.7,18.2l67.1,145.7
		c2.3,5,7.3,8,12.5,8c1.9,0,3.9-0.4,5.7-1.3c6.9-3.2,9.9-11.3,6.7-18.2L371.4,337.7z M216.2,310c-6.9-3.2-15.1-0.2-18.2,6.7
		l-67.1,145.7c-3.2,6.9-0.2,15.1,6.7,18.2c1.9,0.9,3.8,1.3,5.7,1.3c5.2,0,10.2-3,12.5-8l67.1-145.7
		C226.1,321.3,223.1,313.2,216.2,310z M260,330.1c-6.9-3.2-15.1-0.2-18.2,6.7l-67.1,145.7c-3.2,6.9-0.2,15.1,6.7,18.2
		c1.9,0.9,3.8,1.3,5.7,1.3c5.2,0,10.2-3,12.5-8l67.1-145.7C269.9,341.5,266.9,333.3,260,330.1z M307,162.8c7.6,0,13.7-6.2,13.7-13.7
		V58.8c0-7.6-6.2-13.7-13.7-13.7s-13.7,6.2-13.7,13.7v90.3C293.3,156.7,299.4,162.8,307,162.8z M359.3,149.9
		c1.9,0.9,3.9,1.3,5.9,1.3c5.1,0,10.1-2.9,12.4-7.8l24.8-51.8c3.3-6.8,0.4-15.1-6.5-18.3c-6.8-3.3-15.1-0.4-18.3,6.5l-24.8,51.8
		C349.5,138.4,352.4,146.6,359.3,149.9z M233.6,143.4c2.4,4.9,7.3,7.8,12.4,7.8c2,0,4-0.4,5.9-1.3c6.8-3.3,9.7-11.5,6.5-18.3
		l-24.8-51.8c-3.3-6.8-11.5-9.7-18.3-6.5c-6.8,3.3-9.7,11.5-6.5,18.3L233.6,143.4z"/>
</g>
</svg>
