<?xml version="1.0" encoding="utf-8"?>
<!-- Generator: Adobe Illustrator 21.1.0, SVG Export Plug-In . SVG Version: 6.00 Build 0)  -->
<svg version="1.1" id="Layer_1" xmlns="http://www.w3.org/2000/svg" xmlns:xlink="http://www.w3.org/1999/xlink" x="0px" y="0px"
	 viewBox="0 0 512 512" style="enable-background:new 0 0 512 512;" xml:space="preserve">
<style type="text/css">
	.st0{fill:#333333;}
</style>
<g>
	<g>
		<path class="st0" d="M185.4,337.2l-4.4,13.6c8.9,2.9,18.3,5.2,27.9,6.9l2.5-14.1C202.4,342.1,193.7,339.9,185.4,337.2z"/>
	</g>
</g>
<g>
	<g>
		<path class="st0" d="M112.7,290.9l-10.6,9.6c12.3,13.7,33.9,32.8,66.6,45.8l5.3-13.3C143.8,321,124,303.5,112.7,290.9z"/>
	</g>
</g>
<g>
	<g>
		
			<rect x="304.5" y="45.8" transform="matrix(0.4445 -0.8958 0.8958 0.4445 100.7147 324.0317)" class="st0" width="14.3" height="70.1"/>
	</g>
</g>
<g>
	<g>
		
			<rect x="357.1" y="95.5" transform="matrix(0.4445 -0.8958 0.8958 0.4445 106.5561 385.697)" class="st0" width="14.3" height="22.9"/>
	</g>
</g>
<g>
	<g>
		<path class="st0" d="M252.6,18.9L12,134v42.3l50.1,25.9v87.7l0.8,1.6c0.5,1,12.6,23.8,42.2,46.7C132.2,359,179.7,384,252.5,384
			c50.8,0,89.2-12.1,117-26.5v26.5c-13,3.2-22.7,14.9-22.7,28.8c0,4.9,1.2,9.5,3.3,13.5v58.4h14.3v-44.8c1.6,0.7,3.3,1.3,5.1,1.8
			v52.1h14.3v-52.1c1.8-0.4,3.5-1,5.1-1.8v44.8h14.3v-58.4c2.1-4.1,3.3-8.7,3.3-13.5c0-13.9-9.7-25.6-22.7-28.8v-34.6
			c6-3.7,11.3-7.5,16.1-11.1c29.6-22.9,41.7-45.7,42.2-46.7l0.8-1.6v-84.4l50.1-25v-42.3h0L252.6,18.9z M369.5,341.2
			c-26.4,15-64.7,28.5-117,28.5c-68.4,0-112.8-23-138-42.4c-23.3-17.9-35-35.9-38.1-41v-76.7l172.8,89.2l3.3,1.7l0,0l0,0l3.2-1.6
			l113.9-56.7V341.2z M252.6,284.5L62.1,186v0.1l-35.8-18.5v-17.4l226.2,116.8l116.2-57.9l0.9,0.5v16.5L252.6,284.5z M392.2,412.7
			c0,8.5-7,15.4-15.5,15.4s-15.5-6.9-15.5-15.4c0-8.5,7-15.4,15.5-15.4C385.2,397.3,392.2,404.2,392.2,412.7z M368.8,193.1
			l-89.1-47.2c1.2-2.5,1.8-5.1,1.8-7.9c0-12.6-12.7-22.4-29-22.4s-29,9.8-29,22.4s12.7,22.4,29,22.4c6.2,0,11.9-1.4,16.6-3.9
			l84,44.5L252.6,251L35.2,138.7L252.4,34.8l217.4,107.8L368.8,193.1z M267.2,137.9c0,3.8-6.3,8.1-14.7,8.1
			c-8.4,0-14.7-4.3-14.7-8.1c0-3.8,6.3-8.1,14.7-8.1C260.9,129.8,267.2,134.1,267.2,137.9z M428.6,286.3c-3,5.1-14.8,23.2-38.1,41
			c-2.1,1.6-4.3,3.2-6.7,4.9v-97.1l44.8-22.3V286.3L428.6,286.3z M478.7,171.7L383.8,219v-17.5l94.9-47.3V171.7z"/>
	</g>
</g>
</svg>
