<?xml version="1.0" encoding="utf-8"?>
<!-- Generator: Adobe Illustrator 21.1.0, SVG Export Plug-In . SVG Version: 6.00 Build 0)  -->
<svg version="1.1" id="Layer_1" xmlns="http://www.w3.org/2000/svg" xmlns:xlink="http://www.w3.org/1999/xlink" x="0px" y="0px"
	 viewBox="0 0 54 58" style="enable-background:new 0 0 54 58;" xml:space="preserve">
<style type="text/css">
	.st0{fill:#FFFFFF;}
</style>
<g>
	<path class="st0" d="M14.4,49.6c-1.6-0.8-3.1-1.5-4.5-2.4c-2.2-1.2-4.2-2.6-5.9-4.4c-1.8-1.8-2.5-4-2.4-6.5
		c0.1-4.5,1.2-8.9,2.3-13.2c0.5-1.8,1-3.6,1.6-5.3c0.5-1.6,2.2-2,3.5-1c0.5,0.4,1,0.8,1.5,1.3c0.7-2.7,1.5-5.3,2.2-8
		c0.5-1.9,2.1-2.4,3.7-1.1c0.6,0.5,1.3,1,2,1.6c0.3-0.9,0.5-1.9,0.8-2.8c0.3-1.1,0.6-2.2,0.9-3.2c0.5-1.5,2.1-2,3.4-1
		c1.5,1.2,3,2.5,4.4,3.8c0.3,0.3,0.5,0.4,0.9,0.1c1.7-1,3.4-2,5.2-2.9c2.2-1.2,4.5-2.3,6.8-3.3c1.2-0.6,2.5,0.2,2.8,1.7
		c0.3,1.6,0.5,3.3,0.7,4.9c0.3,2.7,0.5,5.5,0.7,8.2c0,0.6,0.3,0.8,0.8,0.9c1.7,0.4,3.5,0.9,5.2,1.4c1.8,0.5,2.4,2.4,1.2,3.6
		c-1.1,1.3-2.2,2.6-3.3,3.9c-0.2,0.2-0.4,0.5-0.6,0.7c1,0.3,1.9,0.6,2.8,0.8c1.3,0.4,2,2.1,1,3.2c-1.5,1.8-3,3.5-4.5,5.3
		c-0.4,0.4-0.8,0.9-1.2,1.3c0.7,0.2,1.4,0.5,2.1,0.7c1.5,0.6,2,2.1,1,3.4c-3.2,4-6.6,7.8-10.4,11.2c-1.3,1.2-2.8,2.3-4.3,3.2
		c-1.9,1.1-4.1,1-6.2,0.5c-3.6-0.9-6.9-2.7-10-4.6c-0.1,0-0.1-0.1-0.3-0.2c-0.4,0.7-0.8,1.4-1.2,2.1c-0.5,0.8-0.9,1.6-1.4,2.4
		c-0.6,0.9-1.9,0.9-2.5,0.5c-1-0.7-1.4-1.7-0.9-2.7C12.9,52.4,13.6,51,14.4,49.6z M8.5,22c-0.1,0.3-0.2,0.5-0.3,0.7
		c-0.4,1.7-0.9,3.5-1.3,5.2c-0.7,3-1.3,6-1.2,9.1c0,0.7,0.3,1.4,0.6,2c1,1.6,2.5,2.5,4,3.4c1.9,1.1,3.8,2.1,5.6,3.1
		c0.2-0.2,0.3-0.2,0.3-0.3c1-2.4,2.2-4.7,3.1-7.1c0.9-2.4,0.7-4.7-1.1-6.7C15.3,28.1,12,25,8.5,22z M44.3,41c-2-0.5-3.8-1-5.6-1.4
		c-3.2-0.8-6.4-1.4-9.7-1.3c-0.5,0-1.2,0.1-1.6,0.4c-0.9,0.6-1.9,1.3-2.5,2.2c-1.5,2-2.8,4.1-4.2,6.2c-0.4,0.6-0.2,1,0.4,1.4
		c2.4,1.3,4.8,2.7,7.4,3.5c2,0.6,3.9,0.8,5.7-0.8c1.5-1.4,3.1-2.6,4.5-4C40.6,45.2,42.4,43.2,44.3,41z M19.5,26.6
		c2.2,2.9,4.9,5.4,4.5,9.4c3.2-2.6,6.7-1.8,10.1-1.5c0.4-5.6,0.1-11.1-0.4-16.6c-0.1-0.1-0.2-0.1-0.2-0.2
		C28.9,20.6,24.3,23.5,19.5,26.6z M40.8,15.9c-0.3-3.2-0.6-6.3-1-9.7c-2.9,1.6-5.7,3.1-8.6,4.6c0.7,0.9,1.3,1.7,1.9,2.4
		c1-0.6,2-1.4,3.3-0.8c1.3,0.7,1,2,1.3,3.1C38.7,15.8,39.7,15.9,40.8,15.9z M15.7,14c-0.6,2.4-1.1,4.7-1.5,6.9c0,0.2,0,0.6,0.2,0.7
		c0.6,0.6,1.3,1.2,2,1.8c0.2,0.1,0.6,0.2,0.8,0.1c1.5-1.1,3-2.2,4.6-3.3c0.3-0.2,0.3-0.4,0-0.7c-1-0.9-2-2-3-2.9
		C17.8,15.7,16.8,14.9,15.7,14z M38.5,28.5c-0.1,2.2-0.2,4.3-0.3,6.4c0,0.1,0.3,0.4,0.4,0.4c0.9,0.2,1.7,0.4,2.6,0.6
		c0.2,0,0.5,0,0.7-0.2c0.8-0.7,1.5-1.5,2.2-2.3c0.8-0.9,1.7-1.9,2.6-2.9C44,29.8,41.3,29.2,38.5,28.5z M25.7,17.6
		c1.3-0.8,2.5-1.5,3.9-2.3c-2.2-2.2-4.3-4.3-6.6-6.5c-0.4,1.8-0.7,3.3-1,4.8c0,0.2,0.1,0.6,0.2,0.7C23.4,15.3,24.5,16.4,25.7,17.6z
		 M47,21.6c-3-0.9-5.9-1.4-8.9-1.7c0.1,1.4,0.2,2.6,0.2,3.8c0,0.6,0.2,0.7,0.7,0.8c1.3,0.2,2.6,0.5,3.8,0.7c0.3,0,0.8,0,1-0.3
		C44.9,23.9,45.9,22.8,47,21.6z"/>
</g>
</svg>
