<?xml version="1.0" encoding="utf-8"?>
<!-- Generator: Adobe Illustrator 21.1.0, SVG Export Plug-In . SVG Version: 6.00 Build 0)  -->
<svg version="1.1" id="Layer_1" xmlns="http://www.w3.org/2000/svg" xmlns:xlink="http://www.w3.org/1999/xlink" x="0px" y="0px"
	 viewBox="0 0 247 75" style="enable-background:new 0 0 247 75;" xml:space="preserve">
<style type="text/css">
	.st0{display:none;}
	.st1{display:inline;}
	.st2{fill:#FFFFFF;}
	.st3{display:inline;fill:#FFFFFF;}
</style>
<g id="Layer_2" class="st0">
	<circle class="st1" cx="160.5" cy="9.5" r="221.5"/>
	<g class="st1">
		<path d="M72.7,78.5c0-1-0.2-1.8-0.7-2.2c-0.4-0.5-1.1-0.7-1.9-0.7h-4.7v-0.9h4.9c2.3,0,3.5,1.3,3.5,3.9v7.6h-1.1
			C72.7,86.2,72.7,78.5,72.7,78.5z M65.5,80.5l0.2-1.4h1v7h-1.1L65.5,80.5L65.5,80.5z"/>
		<path d="M82.2,78.5c0-1-0.2-1.8-0.7-2.2c-0.4-0.5-1.1-0.7-1.9-0.7H76v-0.9h3.8c2.3,0,3.5,1.3,3.5,3.9v7.6h-1.1
			C82.2,86.2,82.2,78.5,82.2,78.5z"/>
		<path d="M86.4,77.1l-0.3-2.4h1.1l0.3,2.4v3.1v1.3l-1.1,0.3V77.1z"/>
		<path d="M99,85.2v1h-2.7h-6.2v-1h6.2v-6.7c0-1-0.2-1.8-0.7-2.2c-0.4-0.5-1.1-0.7-1.9-0.7h-3.6v-0.9H94c2.3,0,3.5,1.3,3.5,3.9v6.7
			H99V85.2z"/>
		<path d="M108.4,74.6v1l-4.1,10.5h-1.1l4.1-10.5h-6.6v-4.4h1.1v3.5L108.4,74.6L108.4,74.6z"/>
		<path d="M120.2,78.5c0-1-0.2-1.8-0.7-2.2c-0.4-0.5-1.1-0.7-1.9-0.7H114v-0.9h3.8c2.3,0,3.5,1.3,3.5,3.9v7.6h-1.1
			C120.2,86.2,120.2,78.5,120.2,78.5z"/>
		<path d="M124.5,77.1l-0.3-2.4h1.1l0.3,2.4v9h-1.1V77.1z"/>
		<path d="M136.3,84.1c-1.5,1.4-3.8,2.2-6.8,2.3L128,74.6h1.1l0.8,6.2c0.7-0.4,1.3-0.8,1.7-1.2c0.4-0.4,0.7-0.9,0.9-1.5
			s0.3-1.3,0.3-2.3v-1.2h1.1v1.2c0,1-0.2,1.9-0.5,2.6s-0.7,1.3-1.2,1.8s-1.3,1-2.2,1.4l0.4,3.5c2.3-0.2,4-0.9,5.2-2.1
			s1.8-3.1,1.8-5.7v-2.9h1.1v2.8C138.5,80.4,137.8,82.6,136.3,84.1z"/>
		<path d="M144,85.2c0.8-0.1,1.4-0.3,2-0.6s1-0.8,1.4-1.5s0.6-1.7,0.7-3l0.4-4.6h-7.6v-0.9h8.8l-0.1,0.9l-0.4,4.6
			c-0.1,2-0.6,3.5-1.5,4.5s-2.1,1.5-3.5,1.6L144,85.2z M140.9,80.2l0.2-1.4h1v11.6H141L140.9,80.2L140.9,80.2z"/>
		<path d="M159.9,84.1c-1.5,1.4-3.8,2.2-6.8,2.3l-1.4-11.7h1.1l0.8,6.2c0.7-0.4,1.3-0.8,1.7-1.2c0.4-0.4,0.7-0.9,0.9-1.5
			s0.3-1.3,0.3-2.3v-1.2h1.1v1.2c0,1-0.2,1.9-0.5,2.6s-0.7,1.3-1.2,1.8s-1.3,1-2.2,1.4l0.4,3.5c2.3-0.2,4-0.9,5.2-2.1
			s1.8-3.1,1.8-5.7v-2.9h1.1v2.8C162.1,80.4,161.4,82.6,159.9,84.1z"/>
		<path d="M175.7,78.5c0-1-0.2-1.8-0.7-2.2c-0.4-0.5-1.1-0.7-1.9-0.7h-4.7v-0.9h4.9c2.3,0,3.5,1.3,3.5,3.9v7.6h-1.1V78.5z
			 M168.4,80.5l0.2-1.4h1v7h-1.1L168.4,80.5L168.4,80.5z"/>
		<path d="M188.2,84.8c-0.8,1-2,1.6-3.5,1.6c-0.5,0-1.1-0.1-1.7-0.2l0.1-0.9c0.5,0.1,0.9,0.2,1.5,0.2c2.4,0,3.6-1.7,3.6-5.2
			c0-3.2-1.1-4.7-3.2-4.7c-0.8,0-1.5,0.2-1.9,0.7c-0.5,0.5-0.8,1.1-1,1.8l-1.5,8.1h-1.1L181,78l-1.6-3.3h1.2l1.1,2.5
			c0.3-0.9,0.7-1.5,1.3-2c0.6-0.4,1.3-0.7,2.1-0.7c1.3,0,2.3,0.4,3.1,1.3s1.2,2.3,1.2,4.4C189.4,82.2,189,83.8,188.2,84.8z"/>
		<path d="M203,74.6v1l-4.1,10.5h-1.1l4.1-10.5h-6.6v-4.4h1.1v3.5L203,74.6L203,74.6z"/>
		<path d="M204.9,85.2h2.6c2.5,0,3.7-1.4,3.7-4.2v-1.2c0-2.8-1.2-4.2-3.7-4.2h-2.6v-0.9h2.7c1.5,0,2.7,0.4,3.5,1.3s1.2,2.2,1.2,3.9
			V81c0,1.7-0.4,3-1.2,3.9s-2,1.3-3.5,1.3h-2.7V85.2z"/>
	</g>
</g>
<g>
	<path class="st2" d="M18.4,62.6c-1.6-0.8-3.1-1.5-4.5-2.4C11.7,59,9.7,57.6,8,55.8c-1.8-1.8-2.5-4-2.4-6.5
		c0.1-4.5,1.2-8.9,2.3-13.2c0.5-1.8,1-3.6,1.6-5.3c0.5-1.6,2.2-2,3.5-1c0.5,0.4,1,0.8,1.5,1.3c0.7-2.7,1.5-5.3,2.2-8
		c0.5-1.9,2.1-2.4,3.7-1.1c0.6,0.5,1.3,1,2,1.6c0.3-0.9,0.5-1.9,0.8-2.8c0.3-1.1,0.6-2.2,0.9-3.2c0.5-1.5,2.1-2,3.4-1
		c1.5,1.2,3,2.5,4.4,3.8c0.3,0.3,0.5,0.4,0.9,0.1c1.7-1,3.4-2,5.2-2.9c2.2-1.2,4.5-2.3,6.8-3.3c1.2-0.6,2.5,0.2,2.8,1.7
		c0.3,1.6,0.5,3.3,0.7,4.9c0.3,2.7,0.5,5.5,0.7,8.2c0,0.6,0.3,0.8,0.8,0.9c1.7,0.4,3.5,0.9,5.2,1.4c1.8,0.5,2.4,2.4,1.2,3.6
		c-1.1,1.3-2.2,2.6-3.3,3.9c-0.2,0.2-0.4,0.5-0.6,0.7c1,0.3,1.9,0.6,2.8,0.8c1.3,0.4,2,2.1,1,3.2c-1.5,1.8-3,3.5-4.5,5.3
		c-0.4,0.4-0.8,0.9-1.2,1.3c0.7,0.2,1.4,0.5,2.1,0.7c1.5,0.6,2,2.1,1,3.4c-3.2,4-6.6,7.8-10.4,11.2c-1.3,1.2-2.8,2.3-4.3,3.2
		c-1.9,1.1-4.1,1-6.2,0.5c-3.6-0.9-6.9-2.7-10-4.6c-0.1,0-0.1-0.1-0.3-0.2c-0.4,0.7-0.8,1.4-1.2,2.1c-0.5,0.8-0.9,1.6-1.4,2.4
		c-0.6,0.9-1.9,0.9-2.5,0.5c-1-0.7-1.4-1.7-0.9-2.7C16.9,65.4,17.6,64,18.4,62.6z M12.5,35c-0.1,0.3-0.2,0.5-0.3,0.7
		c-0.4,1.7-0.9,3.5-1.3,5.2c-0.7,3-1.3,6-1.2,9.1c0,0.7,0.3,1.4,0.6,2c1,1.6,2.5,2.5,4,3.4c1.9,1.1,3.8,2.1,5.6,3.1
		c0.2-0.2,0.3-0.2,0.3-0.3c1-2.4,2.2-4.7,3.1-7.1c0.9-2.4,0.7-4.7-1.1-6.7C19.3,41.1,16,38,12.5,35z M48.3,54c-2-0.5-3.8-1-5.6-1.4
		c-3.2-0.8-6.4-1.4-9.7-1.3c-0.5,0-1.2,0.1-1.6,0.4c-0.9,0.6-1.9,1.3-2.5,2.2c-1.5,2-2.8,4.1-4.2,6.2c-0.4,0.6-0.2,1,0.4,1.4
		c2.4,1.3,4.8,2.7,7.4,3.5c2,0.6,3.9,0.8,5.7-0.8c1.5-1.4,3.1-2.6,4.5-4C44.6,58.2,46.4,56.2,48.3,54z M23.5,39.6
		c2.2,2.9,4.9,5.4,4.5,9.4c3.2-2.6,6.7-1.8,10.1-1.5c0.4-5.6,0.1-11.1-0.4-16.6c-0.1-0.1-0.2-0.1-0.2-0.2
		C32.9,33.6,28.3,36.5,23.5,39.6z M44.8,28.9c-0.3-3.2-0.6-6.3-1-9.7c-2.9,1.6-5.7,3.1-8.6,4.6c0.7,0.9,1.3,1.7,1.9,2.4
		c1-0.6,2-1.4,3.3-0.8c1.3,0.7,1,2,1.3,3.1C42.7,28.8,43.7,28.9,44.8,28.9z M19.7,27c-0.6,2.4-1.1,4.7-1.5,6.9c0,0.2,0,0.6,0.2,0.7
		c0.6,0.6,1.3,1.2,2,1.8c0.2,0.1,0.6,0.2,0.8,0.1c1.5-1.1,3-2.2,4.6-3.3c0.3-0.2,0.3-0.4,0-0.7c-1-0.9-2-2-3-2.9
		C21.8,28.7,20.8,27.9,19.7,27z M42.5,41.5c-0.1,2.2-0.2,4.3-0.3,6.4c0,0.1,0.3,0.4,0.4,0.4c0.9,0.2,1.7,0.4,2.6,0.6
		c0.2,0,0.5,0,0.7-0.2c0.8-0.7,1.5-1.5,2.2-2.3c0.8-0.9,1.7-1.9,2.6-2.9C48,42.8,45.3,42.2,42.5,41.5z M29.7,30.6
		c1.3-0.8,2.5-1.5,3.9-2.3c-2.2-2.2-4.3-4.3-6.6-6.5c-0.4,1.8-0.7,3.3-1,4.8c0,0.2,0.1,0.6,0.2,0.7C27.4,28.3,28.5,29.4,29.7,30.6z
		 M51,34.6c-3-0.9-5.9-1.4-8.9-1.7c0.1,1.4,0.2,2.6,0.2,3.8c0,0.6,0.2,0.7,0.7,0.8c1.3,0.2,2.6,0.5,3.8,0.7c0.3,0,0.8,0,1-0.3
		C48.9,36.9,49.9,35.8,51,34.6z"/>
</g>
<g class="st0">
	<path class="st3" d="M127.9-83.7c3.9,9.8,7.7,19.7,11.4,29c6.8,0,14.6-0.2,22.4,0.1c5.7,0.2,8.7,3,8.4,9.3
		c-0.4,7.1-0.1,14.3-0.1,21.5c8.9,3.5,19.2,7.6,30.2,11.9C186,3.1,156.6,9,133.8-8.7c-5.2,1.8-9.5,3.2-13.8,4.7
		c1.1-4.2,2.2-8.3,3.9-14.5C110-38.7,109.2-61,124.6-83.1C125.7-83.3,126.8-83.5,127.9-83.7z"/>
</g>
<g>
	<g>
		<path class="st2" d="M64.7,59.4c2.2-0.2,3.8-0.7,4.9-1.3s1.8-1.5,2.2-2.6c0.4-1.1,0.6-2.7,0.5-4.8V17.3h26c4.6,0,8.2,1.3,10.8,3.9
			c2.6,2.6,4,6.7,4,12.2v32.9h-12.4V32.9c0-4.2-1.9-6.3-5.8-6.3H84.8v22.5c0,4.4-0.7,7.8-2,10.4s-3.4,4.5-6.1,5.8s-6.4,2.1-10.9,2.5
			L64.7,59.4z"/>
	</g>
	<g>
		<path class="st2" d="M122.2,38.7c0.5,0.6,0.8,1.3,0.8,2.1c0,0.9-0.3,1.6-0.8,2.2c-0.5,0.6-1.2,0.9-2.1,0.9s-1.6-0.3-2.1-0.9
			c-0.5-0.6-0.8-1.3-0.8-2.2c0-0.7,0.3-1.4,0.9-2.1c0.6-0.6,1.3-0.9,2.1-0.9C121,37.8,121.7,38.1,122.2,38.7z"/>
	</g>
	<g>
		<path class="st2" d="M126.1,27.4l-1-10h12.4l1,10v39h-12.4V27.4z"/>
	</g>
	<g>
		<path class="st2" d="M194,7.9c0.5,0.6,0.8,1.3,0.8,2.1c0,0.9-0.3,1.6-0.8,2.2c-0.5,0.6-1.2,0.9-2.1,0.9c-0.9,0-1.6-0.3-2.1-0.9
			c-0.5-0.6-0.8-1.3-0.8-2.2c0-0.8,0.3-1.5,0.8-2.1S191,7,191.9,7S193.5,7.3,194,7.9z"/>
	</g>
	<g>
		<path class="st2" d="M188.1,58.2c-6.9,6-17.7,9-32.2,9h-2.7l-6.4-49.9h11.8l2.5,21.2c2.3-1.1,3.8-2.9,4.6-5.2s1.2-5.7,1.1-10.3
			v-5.7h11.8v5.4c-0.1,6.3-1.4,11.4-3.8,15.3c-2.4,3.9-6.6,6.9-12.7,9l1.2,9.9c8.2-0.5,14-2.9,17.5-7.1s5.2-10.1,5.2-17.6l-0.2-15
			h12.5l0.1,14.3C198.4,43.4,195,52.2,188.1,58.2z"/>
	</g>
	<g>
		<path class="st2" d="M218.7,38.9c0.5,0.6,0.8,1.3,0.8,2.1c0,0.9-0.3,1.6-0.8,2.2c-0.5,0.6-1.2,0.9-2.1,0.9c-0.9,0-1.6-0.3-2.1-0.9
			c-0.5-0.6-0.8-1.3-0.8-2.2c0-0.7,0.3-1.4,0.9-2.1c0.6-0.6,1.3-0.9,2.1-0.9C217.5,38,218.2,38.3,218.7,38.9z"/>
	</g>
	<g class="st0">
		<path class="st3" d="M225.4,72.1c0.5,0.6,0.8,1.3,0.8,2.1c0,0.9-0.3,1.6-0.8,2.1c-0.5,0.6-1.2,0.9-2.1,0.9c-0.9,0-1.6-0.3-2.1-0.9
			s-0.8-1.3-0.8-2.1c0-0.9,0.3-1.6,0.8-2.1c0.5-0.6,1.2-0.9,2.1-0.9S224.9,71.5,225.4,72.1z M225.4,80.9c0.5,0.6,0.8,1.3,0.8,2.1
			c0,0.9-0.3,1.6-0.8,2.1c-0.5,0.6-1.2,0.9-2.1,0.9c-0.9,0-1.6-0.3-2.1-0.9s-0.8-1.3-0.8-2.1c0-0.8,0.3-1.5,0.9-2.1
			c0.6-0.6,1.3-0.9,2.1-0.9C224.2,80,224.9,80.3,225.4,80.9z"/>
	</g>
	<g>
		<path class="st2" d="M205.8,57.1h13.7c3.3,0,5.8-1.1,7.3-3.3c1.6-2.2,2.4-5.1,2.4-8.8v-6.4c0-3.7-0.8-6.6-2.4-8.8
			c-1.6-2.2-4-3.3-7.3-3.3h-13.7v-9.3h17.1c6.1,0,10.8,2,14,5.9s4.8,9.3,4.8,16.1v5.1c0,6.8-1.6,12.2-4.8,16.1s-7.9,5.9-14,5.9
			h-17.1V57.1z"/>
	</g>
</g>
</svg>
