<?xml version="1.0" encoding="utf-8"?>
<!-- Generator: Adobe Illustrator 21.1.0, SVG Export Plug-In . SVG Version: 6.00 Build 0)  -->
<svg version="1.1" id="Layer_1" xmlns="http://www.w3.org/2000/svg" xmlns:xlink="http://www.w3.org/1999/xlink" x="0px" y="0px"
	 viewBox="0 0 373.8 311.1" style="enable-background:new 0 0 373.8 311.1;" xml:space="preserve">
<style type="text/css">
	.st0{fill:#008184;}
	.st1{fill:#3F505A;}
	.st2{fill:#40515B;}
	.st3{fill:#7FBFC1;}
	.st4{fill:#40515A;}
	.st5{fill:#40505A;}
	.st6{fill:#41525C;}
	.st7{fill:#41525B;}
	.st8{fill:#41515B;}
	.st9{fill:#465660;}
	.st10{fill:#43545D;}
	.st11{fill:#485861;}
	.st12{fill:#FEFEFE;}
	.st13{fill:#FDFEFE;}
	.st14{fill:#FCFDFD;}
	.st15{fill:#FBFDFD;}
	.st16{fill:#FAFAFB;}
	.st17{fill:#FAFAFA;}
	.st18{fill:#FDFDFD;}
	.st19{fill:#FDFDFE;}
</style>
<g>
	<path class="st0" d="M373.5,259.1c0,16.7,0,33.5,0.1,50.2c0,1.5-0.5,1.9-1.9,1.7c-0.4-0.1-0.8,0-1.2,0c-122.4,0-244.9,0-367.3,0.1
		c-2.4,0-3.2-0.4-3.2-3c0.2-16.3,0.1-32.6,0.1-49c0.8-0.6,1.6-0.3,2.4-0.3c122.8,0,245.7,0,368.5,0
		C371.9,258.8,372.8,258.5,373.5,259.1z"/>
	<path class="st1" d="M92.5,90c0-15.2,0-30.3,0-45.5c0-5.5,2.5-8,8.1-8c3.2,0,6.3,0,9.5,0c4.3,0.1,7,2.8,7,7c0,2.8,0,5.7,0,8.5
		c0.1,3.4,1.7,5,5.1,5c6.3,0,12.7,0,19,0c3.7,0,5.3-1.6,5.3-5.3c0-14.7,0-29.3,0-44c0-5.3,2.5-7.8,7.8-7.8c3.4,0,6.8,0,10.2,0
		c3.6,0,6.1,2.3,6.6,5.9c0.1,0.9,0.1,1.8,0.1,2.7c0,29.8,0,59.6,0,89.5c0,6.6-2.3,8.8-8.9,8.8c-2.9,0-5.8,0-8.7,0
		c-4.4-0.1-7.2-2.8-7.2-7.2c0-6.2,0-12.5,0-18.7c0-3.9-1.6-5.5-5.5-5.5c-6.2,0-12.3,0-18.5,0c-3.9,0-5.4,1.6-5.4,5.5
		c0,18.2,0,36.5,0,54.7c0,5.2-2.5,7.8-7.8,7.8c-2.9,0-5.8,0-8.7,0c-5.6,0-8.1-2.5-8.1-8C92.5,120.3,92.5,105.2,92.5,90z"/>
	<path class="st1" d="M208.6,90c0,15.2,0,30.5,0,45.7c0,5.2-2.6,7.8-7.8,7.8c-3.2,0-6.3,0-9.5,0c-4.5,0-7.1-2.5-7.4-7
		c0-0.7,0-1.3,0-2c0-29.7,0-59.3,0-89c0-6.9,2.2-9.1,9.2-9.1c2.8,0,5.7,0,8.5,0c4.4,0.1,7.1,2.8,7.1,7.2
		C208.6,59.2,208.6,74.6,208.6,90z"/>
	<path class="st1" d="M250.2,36.5c7.4,0,14.8,0,22.2,0c5,0,7.6,2.6,7.7,7.5c0,3.3,0.1,6.7,0,10c-0.1,4.7-2.7,7.2-7.3,7.3
		c-1.4,0-2.8,0-4.2,0c-4.4,0-5.9,1.5-5.9,5.8c0,10.7,0,21.3,0,32c0,5.3-2.6,7.8-7.8,7.8c-3.1,0-6.2,0-9.2,0c-5,0-7.7-2.6-7.7-7.7
		c0-10.7,0-21.3,0-32c0-4.6-1.4-6-5.9-6c-1.7,0-3.3,0.1-5,0c-3.8-0.2-6.3-2.8-6.4-6.6c-0.1-3.7-0.1-7.5,0-11.2
		c0.1-4.2,2.7-6.8,6.9-6.8C235,36.5,242.6,36.5,250.2,36.5z"/>
	<path class="st1" d="M196.2,0c1.8,0,3.7,0,5.5,0c3.9,0.1,6.7,2.7,6.8,6.5c0.1,3.9,0.1,7.8,0,11.7c-0.1,3.7-2.8,6.3-6.6,6.5
		c-3.8,0.2-7.7,0.2-11.5,0c-4.1-0.2-6.5-2.9-6.6-7c-0.1-3.6-0.1-7.2,0-10.7c0.1-4.3,2.9-6.9,7.1-7C192.7,0,194.4,0,196.2,0z"/>
	<path class="st1" d="M250.1,143.5c-1.8,0-3.7,0-5.5,0c-3.9-0.1-6.7-2.7-6.8-6.5c-0.1-3.9-0.1-7.8,0-11.7c0.1-3.6,2.5-6.2,6.1-6.4
		c4.1-0.2,8.2-0.2,12.2,0c3.9,0.2,6.3,3,6.4,7c0.1,3.5,0,7,0,10.5c-0.1,4.4-2.8,7.2-7.2,7.2C253.6,143.5,251.9,143.5,250.1,143.5z"
		/>
	<path class="st1" d="M171.2,131.1c0,2,0,4,0,6c-0.1,3.6-2.8,6.3-6.4,6.4c-3.9,0.1-7.8,0.1-11.7,0c-3.6-0.1-6.3-2.7-6.5-6.3
		c-0.2-4-0.1-8,0-12c0.1-3.4,2.4-6.1,5.9-6.3c4.2-0.3,8.5-0.3,12.7,0c3.7,0.2,5.9,3,6,6.7C171.2,127.4,171.2,129.3,171.2,131.1z"/>
	<path class="st1" d="M358,173.5c2-4,3.2-4.8,7.6-4.6c3.7,0.2,6.1,2,7.1,5.6c1.5,5.5,1.5,11.1-0.2,16.5c-1.3,4.3-7.4,6.7-11.4,5
		c-0.8-0.3-0.9-0.8-0.9-1.6c0-1.2,0-2.5,0-3.9c1.5,0.1,3,1,4.2-0.2c1.2-1.3,1.2-3,1.2-4.7c0-2.5,0.1-5-0.1-7.5
		c-0.2-1.7-0.5-3.7-2.8-3.8c-2.1-0.1-2.8,1.6-3.3,3.1c-1.6,4.4-1.8,9-2.2,13.5c-0.4,4.6-0.3,4.6-4.8,4.6c-3.3,0-3.3,0-2.8-3.3
		c0.5-4,1.1-7.9,1.5-11.9c0.3-3.1-1.1-5.8-2-8.7c-0.2-0.7-0.5-1.4-0.8-2.3c2.4,0,4.5-0.1,6.7,0c2.6,0.2,1.6,2.6,2.3,4
		C357.4,173.9,357.7,173.9,358,173.5z"/>
	<path class="st1" d="M262.1,174.6c0-0.6,0-0.9,0-1.1c0.4-2.2,0.4-4.6,3.8-4.7c3.6-0.1,6.4,0.9,7.2,4c1.7,6.3,1.7,12.6-0.3,18.9
		c-0.2,0.7-0.7,1.4-1.2,1.9c-4.1,3.8-9,3.4-13.9,2.3c-4.1-0.9-6-4.2-6.2-8.1c-0.3-5.6-0.1-11.3-0.2-17c0-1.2,0.5-1.3,1.5-1.4
		c6.5-0.4,6.5-0.4,6.5,6.1c0,3.6,0,7.2,0,10.7c0,0.9,0,1.9,0.2,2.7c0.4,1.6,1.5,2.5,3.3,2.5c1.7,0,2.8-0.9,3.1-2.7
		c0.6-4.1,0.4-8.1,0-12.2C265.8,174.4,264.4,173.7,262.1,174.6z"/>
	<path class="st1" d="M73.6,182.4c0-3.7,0.1-7.5,0-11.2c0-1.4,0.4-1.8,1.8-1.8c4.2,0.1,8.5,0,12.7,0c4.4,0.1,6.7,2.2,6.8,6.6
		c0.1,6,0,12,0.1,18c0,1.2-0.3,1.5-1.5,1.6c-6.4,0.4-6.4,0.4-6.4-6c0-3.8,0-7.7,0-11.5c0-2.8-2.4-4.4-4.9-3.3
		c-1,0.4-0.6,1.3-0.6,1.9c0,5.6-0.1,11.2,0,16.7c0,1.6-0.3,2.2-2,2.2c-5.9,0-5.9,0.1-5.9-5.7C73.6,187.4,73.6,184.9,73.6,182.4z"/>
	<path class="st1" d="M35.6,195.6c2-6,3.9-11.7,5.8-17.4c1.2-3.8,1.5-3.3-2.5-3.4c-2.4-0.1-5.6,1.1-6.9-0.5
		c-1.2-1.3-0.3-4.4-0.4-6.8c0-0.2,0-0.3,0-0.5c0-6.1,0-6,6.2-5.6c1.1,0.1,1.6,0.4,1.4,1.4c0,0.2,0,0.5,0,0.7c0.1,5.8,0.1,5.8,6,5.8
		c0.3,0,0.7,0,1,0c4.6,0,5.5,0.8,4.2,5.3c-1.9,6.7-4.4,13.2-6.6,19.9c-0.2,0.8-0.6,1.1-1.4,1.1C40.2,195.6,38,195.6,35.6,195.6z"/>
	<path class="st1" d="M171.2,195.6c1.7-5.3,3.4-10.3,5.1-15.3c1.8-5.5,1.8-5.5-4-5.5c-5.2,0-5.2,0-5.2-5.2c0-2.2,0-4.5,0-6.7
		c0-1,0.3-1.6,1.4-1.4c0.1,0,0.2,0,0.2,0c5.9-0.3,6-0.3,6,5.8c0,1.7,0.4,2.4,2.2,2.2c2.6-0.1,5.2,0,7.7-0.1c1.2,0,1.6,0.4,1.5,1.6
		c0,2.1-0.1,4.1-0.8,6.1c-2,5.5-3.8,11.1-5.7,16.7c-0.4,1.3-0.9,1.9-2.4,1.8C175.3,195.5,173.4,195.6,171.2,195.6z"/>
	<path class="st1" d="M244.1,182.3c-0.1,2.7,0.2,5.2-0.4,7.6c-0.8,3.5-2.3,5.2-5.9,5.4c-3.1,0.3-6.1,0.1-9.2,0.2
		c-1,0-1.2-0.4-1.3-1.3c-0.4-3.8-0.3-4,3.6-4c4.4-0.1,5.2-0.9,5.2-5.3c0-2.2,0.1-4.3-0.1-6.5c-0.1-2.6-1.1-3.5-3.7-3.6
		c-0.7,0-1.3-0.1-2,0c-2.6,0.5-3.3-0.6-3.1-3.1c0.1-1.6,0.3-2.4,2.2-2.3c2.5,0.2,5,0,7.5,0.1c4.3,0.2,6.1,1.8,6.9,6.1
		C244.3,177.8,243.9,180.2,244.1,182.3z"/>
	<path class="st2" d="M302.4,186.8c0,5,0,10,0,15c0,1.4-0.4,1.8-1.8,1.8c-6.2,0.1-6.2,0.2-6.2-6.1c0-8.6,0.1-17.1,0-25.7
		c0-1.9,0.5-2.4,2.4-2.4c5.7,0.1,5.7,0,5.7,5.7C302.4,178.9,302.4,182.9,302.4,186.8z"/>
	<path class="st1" d="M342,182.6c0,2.4,0.2,4.8-0.3,7.2c-0.8,3.7-2.5,5.4-6.2,5.7c-2.9,0.2-5.8,0.1-8.7,0.2c-1.1,0-1.4-0.4-1.4-1.5
		c-0.3-3.8-0.3-3.9,3.5-3.9c4.3-0.1,5.2-0.9,5.3-5.3c0.1-2.1,0-4.2-0.1-6.2c-0.1-3-1.1-3.8-4-3.9c-0.7,0-1.5-0.1-2.2,0
		c-2.1,0.3-2.6-0.6-2.7-2.6c-0.1-2.4,0.7-3,3-2.8c2.3,0.2,4.7,0,7,0.1c4.1,0.2,5.8,1.8,6.5,5.8c0.1,0.6,0.3,1.1,0.3,1.7
		C342,178.9,342,180.7,342,182.6z"/>
	<path class="st1" d="M136.4,189.3c-1,2.5-1.7,4.5-3.1,6.2c-0.7,0.8-1.8,1.6-2.8,1.3c-1.1-0.3-0.4-1.6-0.5-2.4c-0.1-0.6,0.1-1.3,0-2
		c-0.3-2,0.4-3.2,2.2-4.4c3.8-2.6,4.7-6.6,4-11c-0.3-2-1.9-2.3-3.4-2c-3,0.5-2.3-1.5-2.5-3.2c-0.2-2.1,0.8-2.3,2.5-2.2
		c1.9,0.1,3.8,0,5.7,0.1c3.2,0.2,4.6,1.6,5.2,4.7c0.7,3.5,0.2,7,0.3,10.4c0.1,3.2,0.3,6.3,1.1,9.4c0.3,1.1,0.3,1.8-1.1,1.6
		c-0.1,0-0.2,0-0.2,0c-2-0.1-4.4,0.8-5.8-0.4C136.5,194.1,137.3,191.5,136.4,189.3z"/>
	<path class="st1" d="M0.6,186.4c0-5.1,0-10.2,0-15.2c0-1.4,0.4-1.8,1.8-1.8c6.2-0.1,6.2-0.2,6.2,6.1c0,8.7,0,17.3,0,26
		c0,1.7-0.5,2.1-2.1,2.1c-6,0-6,0-6-5.9C0.6,193.9,0.6,190.2,0.6,186.4z"/>
	<path class="st1" d="M220.2,184c0,3.2-0.1,6.5,0,9.7c0,1.4-0.3,1.9-1.8,1.9c-2.9-0.1-5.8-0.2-8.7,0c-1.9,0.1-1.9-1-1.6-2.2
		c0.2-1.2-1.2-3.4,1.6-3.2c2.2,0.2,2.6-0.7,2.5-2.7c-0.2-3.3-0.1-6.7,0-10c0-1.8-0.5-2.9-2.5-2.9c-3.1,0-1.3-2.4-1.6-3.7
		c-0.5-1.5,0.6-1.7,1.9-1.7c1.9,0.1,3.8,0,5.7,0c2.9,0.1,4.3,1.3,4.4,4.3C220.2,177.2,220.1,180.6,220.2,184
		C220.1,184,220.1,184,220.2,184z"/>
	<path class="st2" d="M0.1,224.4c0-4.2,0-8.5,0-12.7c0-1.1,0.1-1.9,1.6-1.8c1.3,0.1,2,0.2,1.9,1.8c-0.1,2.9,0.1,5.8-0.1,8.7
		c-0.1,1.7,0.5,2.2,2.1,2.1c1.7-0.1,3.5-0.1,5.2,0c1.4,0.1,1.7-0.5,1.7-1.7c-0.1-3,0-6,0-9c0-1.1,0.1-1.8,1.6-1.8
		c1.4,0,1.9,0.4,1.8,1.9c-0.1,8.4,0,16.8,0,25.2c0,1.2-0.1,2-1.7,2c-1.6,0-1.7-0.7-1.7-2c0.1-3.2-0.1-6.3,0.1-9.5
		c0.1-1.6-0.5-2.1-2-1.9c-2.2,0.2-5.1-0.7-6.5,0.4c-1.5,1.2-0.4,4.2-0.5,6.4c-0.1,1.5-0.1,3,0,4.5c0.1,1.4-0.2,2.1-1.9,2.1
		c-1.7,0-1.6-0.9-1.6-2.1C0.1,232.8,0.1,228.6,0.1,224.4z"/>
	<path class="st2" d="M24.9,182.8c0,3.7,0,7.3,0,11c0,1.4-0.3,1.8-1.8,1.9c-6.3,0.2-6.3,0.2-6.3-6.1c0-6,0-12,0-18
		c0-1.6,0.3-2.1,2.1-2.1c6,0,6-0.1,6,5.9C24.9,177.8,24.9,180.3,24.9,182.8z"/>
	<path class="st2" d="M65.4,182.8c0,3.7,0,7.3,0,11c0,1.4-0.3,1.8-1.8,1.9c-6.3,0.2-6.3,0.2-6.3-6.1c0-6,0-12,0-18
		c0-1.6,0.3-2.1,2.1-2.1c6,0,6-0.1,6,5.9C65.4,177.8,65.4,180.3,65.4,182.8z"/>
	<path class="st1" d="M353.5,237.2c-5,3.2-8.5,1.6-9.5-4.1c-0.6-3.8-0.8-7.6,0.6-11.3c1.6-4.1,5.3-4.8,8.7-1.6
		c0-1.8,1.2-1.8,2.4-1.7c1.6,0.1,0.9,1.4,0.9,2.1c0.1,6.7,0,13.5,0,20.2c0,2.3-0.6,4.3-3,5.2c-3.1,1.1-6.6,0.6-8.2-1.3
		c-0.9-1-1.7-2.6-0.6-3.4c0.8-0.6,2.9-1,3.5,1.3c0.3,1.1,1.5,1.5,2.7,1.3c1.4-0.2,2.3-1,2.5-2.4
		C353.6,240.1,353.5,238.7,353.5,237.2z"/>
	<path class="st1" d="M160.5,182.6c0,3.7-0.1,7.3,0,11c0,1.4-0.3,2-1.9,2.1c-6.1,0.1-6.1,0.2-6.1-6c0-6,0.1-12,0-18
		c0-1.6,0.2-2.3,2.1-2.3c5.9,0,5.9,0,5.9,6C160.5,177.8,160.5,180.2,160.5,182.6z"/>
	<path class="st1" d="M201,182.8c0,3.7-0.1,7.3,0,11c0,1.4-0.3,1.8-1.8,1.9c-6.2,0.2-6.2,0.2-6.2-5.9c0-6.1,0-12.2,0-18.2
		c0-1.5,0.3-2.1,2-2.1c6,0,6-0.1,6,5.9C201,177.8,201,180.3,201,182.8z"/>
	<path class="st1" d="M318.1,182.6c0,3.7-0.1,7.5,0,11.2c0,1.4-0.3,1.8-1.8,1.8c-6.2,0.1-6.2,0.2-6.2-6.1c0-6.1,0-12.1,0-18.2
		c0-1.5,0.3-2,1.9-2c6.1,0,6.1-0.1,6.1,6C318.1,177.8,318.1,180.2,318.1,182.6z"/>
	<path class="st3" d="M373.5,259.1c-0.9,0-1.8-0.1-2.7-0.1c-122.6,0-245.3,0-367.9,0c-0.9,0-1.8,0-2.7,0.1c0.5-1,1.5-0.5,2.2-0.5
		c123,0,245.9,0,368.9,0C372,258.5,373,258.1,373.5,259.1z"/>
	<path class="st2" d="M276.4,220.4c1.4-1.3,2.4-1.9,3.6-2.2c3.3-0.6,5.8,1,6,4.3c0.3,5.1,0.1,10.1,0.2,15.2c0,1.3-0.8,1.2-1.6,1.2
		c-1,0.1-1.5-0.3-1.5-1.4c0-4.1,0-8.2,0-12.2c0-3-0.9-4.2-3-4.3c-2.1-0.1-3.5,1.3-3.6,4.1c-0.2,3.9-0.1,7.8-0.1,11.7
		c0,1.1,0.2,2.1-1.6,2.1c-1.7,0-1.6-0.8-1.6-2c0-8.4,0-16.8,0-25.2c0-1.2,0.1-1.9,1.6-1.8c1.4,0,1.7,0.5,1.7,1.8
		C276.3,214.4,276.4,217.1,276.4,220.4z"/>
	<path class="st4" d="M171.5,228.3c0-1.5,0-3.4,0.5-5.3c0.9-3.4,3.2-5.1,6.8-4.9c3.5,0.2,5.2,1.8,5.8,5.3c1.1,6.4,1.1,6.4-5.3,6.4
		c-0.4,0-4.2-0.8-4.4,0.8c-0.2,1.8-0.1,3.9,1.5,5.3c1.7,1.3,4,0.6,4.7-1.8c0.6-2,2-1.7,3.1-1.4c1.3,0.4,0.5,1.8,0.3,2.6
		c-0.6,2.5-2.7,3.8-5.7,4c-3.2,0.2-5.2-0.9-6.3-3.5C171.5,233.5,171.5,231.1,171.5,228.3z"/>
	<path class="st4" d="M249.5,229.8c-0.6,0-4.6-1-5,1.1c-0.4,2.3,0.9,5,2.5,5.4c2.1,0.5,3.4-0.5,3.9-2.5c0.5-2,2-1.3,3-1.1
		c1.2,0.2,0.5,1.3,0.4,2.1c-0.7,2.9-2.5,4.3-5.8,4.5c-3.3,0.2-5.6-1-6.5-3.9c-1.3-4.3-1.3-8.7-0.1-13c0.8-3,3.2-4.4,6.5-4.3
		c3.3,0.1,5,1.5,5.8,4.8c0.1,0.3,0.2,0.6,0.3,1C255.5,229.5,255.2,229.8,249.5,229.8z"/>
	<path class="st5" d="M55.6,228.8c0,1.7-0.1,3.3-0.4,4.9c-0.8,4-2.8,5.6-6.7,5.6c-3.9,0-5.8-1.7-6.5-5.8c-0.6-3.4-0.6-6.8,0.1-10.1
		c0.7-3.5,2.9-5.2,6.5-5.3c3.6,0,5.7,1.7,6.5,5.2C55.5,225.1,55.6,226.9,55.6,228.8z"/>
	<path class="st5" d="M341.6,228.7c0,1.7,0,3.5-0.4,5.2c-0.8,3.8-2.7,5.4-6.6,5.4c-3.8,0-5.8-1.7-6.5-5.5c-0.6-3.5-0.7-6.9,0-10.4
		c0.7-3.5,2.9-5.3,6.5-5.3c3.6-0.1,5.8,1.7,6.6,5.2C341.5,225,341.6,226.9,341.6,228.7z"/>
	<path class="st6" d="M61.5,221.1c1.4-2.3,2.8-2.8,4.4-3c2.8-0.3,4.8,1.1,5.2,3.9c0.7,5.2,0.2,10.5,0.3,15.7c0,1.2-0.8,1.2-1.7,1.2
		c-1.2,0.1-1.6-0.4-1.6-1.6c0-4.1,0-8.2,0-12.2c0-2.9-0.9-4-2.9-4.1c-2.1-0.1-3.5,1.3-3.6,3.9c-0.2,4-0.1,8-0.1,12
		c0,1.1,0.2,2.1-1.6,2.1c-1.7,0-1.6-0.9-1.6-2.1c0-5.4,0-10.8,0-16.2c0-0.8-0.9-2.2,1-2.2C60.5,218.5,61.9,218.2,61.5,221.1z"/>
	<path class="st1" d="M33,228.8c0.2,2.3,0,4.6-0.8,6.9c-1.1,2.7-2.8,3.7-6.1,3.7c-3.2,0-5.1-1.2-6-3.9c-1.4-4.3-1.3-8.7-0.2-13
		c0.8-3,3.1-4.4,6.5-4.3c3.3,0.1,5.4,1.7,6.2,4.7c0.2,0.7,0.4,1.5,0.4,2.2C33,226.3,33,227.5,33,228.8z"/>
	<path class="st1" d="M194.5,228.5c0-1.8-0.1-3.6,0.4-5.4c0.9-3.4,2.9-5,6.5-5c3.5,0,5.7,1.6,6.4,5c0.8,3.9,0.9,7.9-0.2,11.8
		c-0.9,3.1-2.7,4.3-6.1,4.3c-3.6,0-5.4-1.2-6.4-4.4C194.4,232.8,194.5,230.7,194.5,228.5z"/>
	<path class="st1" d="M306,229.3c0.1-2.5,0-4.4,0.4-6.2c0.9-3.5,2.9-5,6.4-5c3.5,0,5.7,1.5,6.5,5c0.9,4,0.9,8.1-0.2,12.1
		c-0.9,3-2.9,4.2-6.3,4.2c-3.5-0.1-5.3-1.3-6.2-4.3c-0.2-0.6-0.4-1.3-0.4-1.9C306,231.6,306,230.1,306,229.3z"/>
	<path class="st7" d="M293,220.8c1.2-1.7,2.3-2.3,3.6-2.6c3.3-0.6,5.8,1,5.9,4.4c0.2,5,0.1,10,0.1,15c0,1.1-0.4,1.4-1.5,1.4
		c-1.2,0-1.6-0.4-1.6-1.6c0-4,0-8,0-12c0-3.2-0.9-4.4-3.2-4.4c-2.1,0-3.4,1.5-3.5,4.3c-0.1,3.7,0,7.5,0,11.2c0,1,0.5,2.4-1.5,2.4
		c-1.9,0-1.7-1.1-1.7-2.3c0-5.6-0.1-11.2-0.1-16.7c0-0.8-0.1-1.5,1.1-1.5C291.9,218.6,293.4,218.1,293,220.8z"/>
	<path class="st1" d="M233.6,226.3c0-3.4-0.2-6.8,0.1-10.2c0.2-2.4-0.8-3-2.9-2.8c-0.7,0.1-1.5,0-2.2,0c-1.3,0.1-1.7-0.5-1.7-1.7
		c0-1.4,0.6-1.7,1.8-1.6c4.6,0.1,9.2,0.1,13.7,0c1.2,0,1.6,0.4,1.6,1.6c0,1.2-0.2,1.8-1.6,1.8c-1.6,0-3.8-0.8-4.8,0.3
		c-1.1,1.3-0.3,3.5-0.4,5.3c0,6-0.1,12,0,18c0,1.4-0.2,2.1-1.9,2c-1.6,0-1.7-0.8-1.7-2C233.6,233.4,233.6,229.8,233.6,226.3z"/>
	<path class="st2" d="M88.6,228.5c0-2.7,0-5.5,0-8.2c0-0.6-0.5-1.5,0.5-1.7c0.9-0.1,2.3-0.7,2.6,0.5c0.5,1.5,0.8,0.7,1.4,0.2
		c1.9-1.5,4-1.6,6.1-0.6c1.9,0.9,2.3,2.8,2.3,4.7c0.1,4.6,0.1,9.2,0.1,13.7c0,1.1,0,1.9-1.5,1.9c-1.5,0-1.6-0.7-1.6-1.8
		c0-4,0-8,0-12c0-2-0.2-4-2.9-4.1c-2.2-0.2-3.5,1.1-3.7,3.8c-0.2,4-0.1,8-0.2,12c0,1.2,0.1,2.3-1.7,2.2c-1.8,0-1.4-1.2-1.5-2.2
		C88.6,234,88.7,231.3,88.6,228.5C88.6,228.5,88.6,228.5,88.6,228.5z"/>
	<path class="st1" d="M366.4,234c1.2-4.5,2.6-9,3.6-13.5c0.4-2,1.5-2.3,3-1.9c1.5,0.5,0.4,1.6,0.2,2.4c-2.3,7.9-4.6,15.8-7,23.7
		c-0.3,1-0.4,1.9-1.8,1.8c-1.3,0-2.2-0.2-1.5-1.8c2-4.3,1.1-8.5-0.4-12.7c-1.4-3.8-2.4-7.8-3.6-11.7c-0.2-0.6-1-1.6,0.2-1.8
		c1-0.1,2.5-1,3.1,1c1.1,4.2,2.2,8.4,3.4,12.5C365.7,232.8,365.6,233.5,366.4,234z"/>
	<path class="st5" d="M110.5,218.1c3,0,5.3,1.6,5.6,3.9c0.1,0.6,0.8,1.9-0.7,1.9c-0.9,0-2.3,0.8-2.7-0.9c-0.2-0.8-0.4-1.5-1.1-1.8
		c-1.4-0.7-2.8-0.7-3.8,0.7c-0.9,1.3-0.5,2.6,0.8,3.4c1.7,1.1,3.7,2,5.3,3.2c2.4,1.7,3.1,4.5,2,7.3c-0.9,2.3-3.5,3.6-6.6,3.4
		c-3.3-0.3-5.1-1.8-5.5-4.7c-0.1-0.7-0.7-1.9,0.7-1.9c1,0,2.6-1,2.8,1.2c0.2,1.8,1.4,2.8,3.3,2.6c1.2-0.1,2-0.7,2.4-1.9
		c0.4-1.1,0.1-2.2-0.9-2.9c-1.6-1-3.3-1.9-4.9-3c-2.8-1.8-3.7-4.1-2.8-6.8C105.2,219.5,107.4,218.1,110.5,218.1z"/>
	<path class="st1" d="M155.7,236.7c-1.6,1.6-2.7,2.4-4.3,2.6c-3.1,0.3-5.3-1.4-5.3-4.5c-0.1-4.9,0-9.8-0.1-14.7
		c0-1.2,0.4-1.5,1.6-1.5c1.3,0,1.5,0.6,1.5,1.7c0,4.4,0,8.8,0.1,13.2c0,1.6,0.8,3,2.6,3.1c1.8,0.2,3-0.9,3.5-2.6
		c0.2-0.6,0.3-1.3,0.4-1.9c0.1-0.6,0-1.2,0-1.7c0-3.3,0-6.7,0-10c0-1.2,0.1-1.8,1.6-1.8c1.6,0,1.5,0.8,1.5,1.9
		c0,5.6,0,11.2,0.1,16.7c0,0.9,0.3,1.9-1.2,1.9C156.2,239,155.3,238.9,155.7,236.7z"/>
	<path class="st8" d="M115.3,177.4c0-2.2,0-4.3,0-6.5c0-2.4,7.5-3.3,7.9,0c0.5,4,0.1,8.1,0.1,12.2c0,0.4-0.1,0.8-0.3,1.2
		c-0.1,0.3-7,1.5-7.3,1.4c-0.7-0.3-0.5-1-0.5-1.5C115.3,181.9,115.3,179.6,115.3,177.4z"/>
	<path class="st1" d="M257.4,228.7c0-2.4,0-4.8,1-7.1c1.1-2.5,3.8-3.9,6.8-3.4c2.8,0.4,4.5,2.3,4.7,5.3c0,0.6,0.5,1.7-0.8,1.6
		c-0.9,0-2.3,0.7-2.5-1.1c-0.2-1.6-0.7-3-2.7-2.9c-1.9,0.1-2.7,1.4-3,3.1c-0.7,3.2-0.5,6.5,0.2,9.6c0.3,1.4,1.1,2.7,2.9,2.7
		c1.7,0,2.6-1.2,2.7-2.7c0.1-2,1.3-1.9,2.5-1.7c1.7,0.3,0.8,1.6,0.6,2.4c-0.5,2.8-2.7,4.7-5.5,4.8c-3.2,0.2-5.4-1.3-6.3-4.2
		c-0.2-0.7-0.4-1.4-0.5-2.2C257.5,231.5,257.5,230.1,257.4,228.7z"/>
	<path class="st6" d="M136.8,228.9c0-1.7,0-3.3,0-5c0-1.5,0.4-3.2-2.1-2.8c-1,0.1-0.9-0.8-0.9-1.4c-0.1-0.9,0.4-1.3,1.2-1.1
		c1.7,0.3,1.9-0.7,1.8-2c0-0.4-0.1-0.9,0.1-1.2c0.4-1.2,1.6-1.6,2.5-1.6c1,0,0.6,1.2,0.6,1.8c-0.1,2,0,3.7,2.7,3.1
		c0.8-0.2,1.2,0.3,1.2,1.2c0,0.9-0.2,1.6-1.2,1.4c-2.6-0.5-2.7,1-2.7,3c0.1,3.1,0.1,6.2,0,9.2c-0.1,2,0.6,3.1,2.7,2.9
		c1-0.1,1.4,0.2,1.3,1.2c0,0.9-0.2,1.3-1.2,1.6c-3.9,0.9-6-0.7-6-4.6C136.8,232.6,136.8,230.7,136.8,228.9z"/>
	<path class="st6" d="M120.2,229c0-1.7,0-3.3,0-5c0-1.5,0.6-3.4-2.2-3c-1,0.1-0.8-0.8-0.8-1.5c-0.1-0.7,0.3-1.2,1-1.1
		c2,0.3,2.2-0.8,2-2.3c-0.1-0.5-0.2-1.2,0.4-1.6c0.8-0.5,1.6-1.3,2.4-1c0.8,0.3,0.4,1.3,0.4,2c-0.1,1.8-0.1,3.4,2.5,2.9
		c0.9-0.2,1.3,0.2,1.3,1.2c0,1.1-0.5,1.5-1.5,1.4c-2.2-0.4-2.4,0.8-2.4,2.6c0.1,3.2,0.1,6.5,0,9.7c0,1.8,0.6,2.9,2.5,2.8
		c0.8,0,1.5,0,1.5,1.1c0,1-0.3,1.5-1.3,1.7c-3.9,0.8-5.9-0.8-5.9-4.7C120.1,232.5,120.2,230.8,120.2,229z"/>
	<path class="st1" d="M212.1,230c0-2.4,0-4.8,0-7.2c0-1.2-0.2-1.9-1.6-1.7c-0.9,0.1-1.3-0.3-1.3-1.3c0-0.9,0.3-1.5,1.3-1.3
		c1.6,0.2,1.8-0.6,1.7-1.9c-0.1-0.8,0-1.7,0-2.5c0.1-3,2.7-5,5.7-4.4c0.8,0.2,1.1,0.5,1.1,1.3c0,0.7-0.1,1.2-1,1.4
		c-2.3,0.5-3.7,3.5-2.7,5.5c0.5,0.9,1.3,0.4,2,0.5c0.9,0.1,1.8-0.1,1.8,1.3c0,1.2-0.7,1.4-1.6,1.2c-2.1-0.4-2.2,0.7-2.2,2.4
		c0.1,4.6,0,9.1,0.1,13.7c0,1.2-0.2,1.8-1.6,1.8c-1.4,0-1.4-0.7-1.4-1.7C212.1,234.9,212.1,232.5,212.1,230z"/>
	<path class="st1" d="M166.3,213.5c0.5,0.8,0.3,1.5,0.3,2.2c-0.1,1.9,0,3.3,2.5,2.8c0.8-0.2,1.4,0,1.4,1.1c0,1.1-0.4,1.6-1.4,1.4
		c-2.5-0.5-2.6,1-2.5,2.8c0.1,3.2,0.1,6.3,0,9.5c-0.1,1.9,0.7,2.9,2.6,2.8c0.8,0,1.5-0.1,1.4,1.1c0,0.9-0.1,1.5-1.3,1.7
		c-4,0.7-5.8-0.7-5.8-4.7c0-3.7,0-7.5,0-11.2c0-1.3-0.2-2.2-1.7-1.9c-0.9,0.1-1.3-0.3-1.3-1.3c0-0.9,0.2-1.5,1.3-1.3
		c1.5,0.2,2-0.4,1.8-1.8C163.1,214.4,164.6,213.9,166.3,213.5z"/>
	<path class="st9" d="M35.8,224.5c0-4.2,0-8.3,0-12.5c0-1.1-0.2-2.1,1.6-2.1c1.6,0,1.7,0.8,1.7,2c0,8.3,0,16.7,0,25
		c0,1.1,0.2,2.1-1.5,2.1c-1.9,0-1.7-1.1-1.7-2.3C35.8,232.6,35.8,228.6,35.8,224.5z"/>
	<path class="st10" d="M82,224.4c0-4.2,0-8.3,0-12.5c0-1.2-0.1-2.1,1.6-2c1.5,0,1.8,0.5,1.8,1.9c-0.1,8.4,0,16.8,0,25.2
		c0,1.2,0,2-1.7,2.1c-1.8,0-1.8-0.9-1.7-2.2C82,232.7,82,228.5,82,224.4z"/>
	<path class="st9" d="M325.4,224.5c0,4.2,0,8.3,0,12.5c0,1.3-0.2,2-1.8,2c-1.6,0-1.5-0.9-1.5-1.9c0-8.4,0-16.8,0-25.2
		c0-1.1-0.1-1.9,1.5-1.9c1.5,0,1.8,0.6,1.8,1.9C325.3,216,325.4,220.3,325.4,224.5z"/>
	<path class="st1" d="M132.2,228.9c0,2.8,0,5.7,0,8.5c0,1.2-0.4,1.5-1.6,1.6c-1.3,0-1.5-0.5-1.5-1.6c0-5.7,0-11.5,0-17.2
		c0-1.1,0.2-1.6,1.5-1.6c1.3,0,1.7,0.4,1.7,1.7C132.1,223.1,132.2,226,132.2,228.9z"/>
	<path class="st11" d="M132.3,211.8c0.3,1.6-0.6,1.7-1.8,1.7c-1.5,0.1-1.5-0.7-1.6-1.8c0-1.3,0.2-1.9,1.7-1.9
		C132.2,209.9,132.6,210.5,132.3,211.8z"/>
	<path class="st12" d="M114.7,287.6c0,1.5,0,3,0,4.5c0,2.9-1.8,4.1-4.5,3.1c-0.9-0.3-0.6-1.1-0.6-1.6c0-3.5,0-7,0-10.5
		c0-1.3-0.2-2.4-1.7-2.6c-1.3-0.2-2.3-0.1-2.2,1.7c0.1,3.2,0.1,6.3,0,9.5c-0.1,3.3-2.9,5.1-5.9,3.8c-0.9-0.4-1.2-3.1-0.3-3.3
		c1.7-0.4,1.1-1.5,1.1-2.3c0.1-3.7,0.1-7.3,0-11c0-1.4,0.4-1.9,1.8-1.8c2.4,0.1,4.8,0,7.2,0c3.4,0.1,4.6,1.2,4.9,4.6
		c0,0.4,0.1,0.8,0.1,1.2C114.7,284.4,114.7,286,114.7,287.6z"/>
	<path class="st13" d="M275.7,280.8c-0.6-2.4,0-3.9,2.5-4.1c2.5-0.2,4.3,0.8,4.6,3.1c0.4,3.8,0.6,7.7-0.3,11.4
		c-0.7,3.1-3.4,4.5-7.5,4.3c-3.2-0.2-5.7-2.2-5.9-5.4c-0.3-4-0.3-8-0.1-12c0.1-2.2,2-0.9,3.1-1.1c1-0.2,2-0.2,1.9,1.4
		c-0.1,2.9,0,5.8,0,8.7c0,1,0,2,0.2,3c0.1,0.9,0.5,1.6,1.5,1.8c1,0.2,1.6-0.6,1.8-1.4c0.9-3.2,0.6-6.5,0.3-9.7
		C277.6,279.2,276.4,280.7,275.7,280.8z"/>
	<path class="st12" d="M215.2,280.8c-0.5-2.3,0.1-3.8,2.5-4.1c2.5-0.3,4.5,0.7,4.7,3c0.3,3.8,0.7,7.7-0.3,11.4
		c-0.9,3.4-3.6,4.8-7.9,4.4c-3-0.3-5.5-2.6-5.6-5.7c-0.2-3.8-0.1-7.7,0-11.5c0-2.3,1.8-1.1,2.8-1.2c0.8-0.1,2.3-0.7,2.2,1.2
		c-0.1,3.2,0,6.3,0,9.5c0,0.7,0,1.5,0.1,2.2c0.2,0.9,0.5,1.9,1.6,1.9c1.1,0,1.6-0.8,1.8-1.7c0.8-3,0.5-6.1,0.3-9.2
		C217.3,279.2,216,280.7,215.2,280.8z"/>
	<path class="st12" d="M61.5,279c1.4-1.5,2.9-2.4,4.9-2.2c3,0.3,4.2,1.5,4.3,4.4c0.1,3.5,0.1,7,0,10.5c-0.1,3.3-2.9,4.9-6,3.6
		c-1-0.4-1.1-1.1-1.1-2c0-0.9,0-1.5,1.3-1.4c1.1,0.1,1.1-1,1.1-1.8c0.1-2.6,0-5.2,0-7.7c0-1.3-0.6-2.3-2-2.4c-1.5-0.1-2.1,1-2.2,2.2
		c-0.2,3.6-0.4,7.2-0.2,10.7c0.1,2.2-0.9,2.3-2.6,2.3c-1.9,0.1-2.5-0.4-2.5-2.4c0-5,0.6-10-0.4-14.9c0-0.2,0-0.7,0.1-0.7
		c1.3-0.1,2.6-0.1,4-0.2C61.6,276.9,60.8,278.3,61.5,279z"/>
	<path class="st13" d="M334.1,287.4c-4.6,0.3-5.6-0.8-4.9-5c0.6-3.6,3.2-5.8,7-5.7c4,0,6.3,2,6.8,5.8c0.3,2.2,0.4,4.4,0,6.7
		c-0.7,3.6-2.7,5.6-6.3,5.9c-1.7,0.1-3.3,0-5,0.1c-1.2,0.1-1.8-0.2-1.8-1.6c0-1.4,0.5-1.7,1.8-1.6c0.7,0.1,1.5,0,2.2,0
		c2.7-0.1,3.9-1.1,4.1-3.7c0.1-2,0-4,0-6c0-1.2-0.5-2.2-1.8-2.3c-1.5-0.1-2,0.9-2.3,2.1C333.5,283.9,333.8,285.6,334.1,287.4z"/>
	<path class="st12" d="M288.8,269.4c2.6,0,3.1,0.7,2.8,2.8c0,0.1,0,0.2,0,0.2c0,4.3,0,4.4,4.3,4.5c2.2,0,2.9,1.2,2.7,3
		c-0.4,4.6-1,9.3-1.6,13.9c-0.3,2.4-2.4,1-3.7,1.3c-1.5,0.3-1.3-0.9-1.2-1.8c0.4-3.6,0.7-7.1,1.3-10.6c0.3-1.8,0-2.4-1.9-2.4
		c-4.6,0-4.9-0.4-4.9-5.1c0-1.2,0.1-2.4-0.2-3.5C285.8,269.6,286.2,269.4,288.8,269.4z"/>
	<path class="st12" d="M79.2,273.2C79,277,79,277,82.7,277c3.1,0,3.6,0.4,3.4,3.5c-0.4,4.5-0.8,9.1-1.6,13.6c-0.4,2.3-2.6,0.9-4,1.1
		c-1.4,0.2-0.9-1.1-0.8-1.8c0.4-3.5,0.9-7.1,1.4-10.6c0.2-1.6-0.1-2.4-2-2.4c-4.3,0-4.8-0.6-4.8-4.9c0-1-0.1-2-0.1-3
		c-0.1-3.2-0.1-3.2,3.1-3.1C79.2,269.4,79.4,269.8,79.2,273.2z"/>
	<path class="st12" d="M238.2,280.7c-0.5,4.4-0.9,8.9-1.7,13.3c-0.4,2.4-2.6,0.9-3.9,1.1c-1.4,0.2-1-1-0.9-1.7
		c0.4-3.5,0.8-6.9,1.3-10.4c0.3-1.8,0.1-2.7-2.2-2.7c-4,0.1-4.6-0.6-4.6-4.6c0-1.2,0.1-2.4-0.1-3.5c-0.6-2.7,0.7-3.1,3-3
		c1.6,0.1,2.3,0.5,2.1,2.1c-0.1,0.4,0,0.8,0,1.2c0,4.5-0.4,4.5,4.3,4.3C238.1,276.9,238.2,278.7,238.2,280.7z"/>
	<path class="st13" d="M164.7,295.1c-2.1,0.5-2.5-0.3-2.2-2.3c0.6-3.5,0.7-7.1,1.2-10.6c0.2-1.4-0.3-1.8-1.5-1.8c-0.7,0-1.3,0-2,0
		c-2-0.1-3.3-1-3.2-3.2c0.1-1.5,0-3-0.1-4.5c-0.3-3.3,0.6-4.1,3.9-3.3c0.6,0.1,0.9,0.4,1,0.9c0.1,0.5,0.1,1,0.2,1.5
		c0.1,1.6-0.6,3.4,0.3,4.6c1,1.4,2.9,0.5,4.4,0.6c2.1,0.2,2.3,1.8,2.2,3.3c-0.4,4.2-1,8.4-1.4,12.6
		C167.3,294.6,166.7,295.7,164.7,295.1z"/>
	<path class="st13" d="M318.4,277.2c2.3,0,5.4-0.9,6.7,0.2c1.5,1.3,0.4,4.5,0.5,6.9c0,2.5,0.2,5-0.4,7.4c-0.6,2.7-2.2,3.9-5,3.8
		c-0.7,0-1.7,0-1.7-1c-0.1-0.8-0.5-1.9,0.6-2.4c1.1-0.5,1.3-1.4,1.3-2.4c0-2.6,0-5.2,0-7.7c0-1.2-0.4-1.6-1.6-1.6c-2,0.1-4-0.1-6,0
		c-1.4,0.1-1.7-0.5-1.7-1.8c0-1.3,0.4-1.7,1.7-1.7c1.8,0.1,3.7,0,5.5,0C318.4,277.1,318.4,277.1,318.4,277.2z"/>
	<path class="st13" d="M197.3,277c6.7-0.4,7.5,3.9,7.7,9.3c0,0.6-0.1,1.2-0.2,1.7c-0.6,5.9-4.3,8.5-10.1,7.1c-1.3-0.3-0.9-1.2-1-1.9
		c-0.1-1,0.4-1.2,1.3-1.3c4.3-0.4,4.7-0.8,4.7-5.1c0-1.2,0-2.3-0.1-3.5c-0.2-1.8-0.9-3.2-3.1-3c-1.3,0.1-2.9,0.6-2.8-1.9
		c0.1-2.5,1.8-1.2,2.9-1.5C196.7,276.9,197,277,197.3,277z"/>
	<path class="st13" d="M27.1,288c0,1.6-0.2,3.2,0,4.7c0.3,2.3-0.8,2.5-2.7,2.5c-2.1,0.1-2.7-0.6-2.6-2.6c0.2-3.1,0-6.1,0.1-9.2
		c0.1-2.2-0.7-3.3-3.1-3c-1.2,0.1-2.5,0-3.7,0c-1.3,0.1-2.1,0-2.1-1.8c0-2,1.1-1.6,2.2-1.6c1.9,0,3.8,0,5.7,0c4.4,0.1,6,1.7,6.1,6
		C27.1,284.7,27.1,286.4,27.1,288z"/>
	<path class="st13" d="M265.1,287.9c0,1.6,0.1,3.2,0,4.7c0,0.8,0.5,2.2-0.5,2.4c-1.3,0.3-2.8,0.2-4.2,0c-0.7-0.1-0.5-1.1-0.5-1.8
		c0-3.4,0-6.8,0-10.2c0-1.9-0.7-2.8-2.6-2.7c-1.4,0.1-2.8-0.1-4.2,0c-1.5,0.1-2-0.3-2-1.9c0-1.8,1-1.5,2.1-1.5c2.2,0,4.3-0.1,6.5,0
		c3.8,0.2,5.4,1.9,5.5,5.6C265.1,284.4,265.1,286.1,265.1,287.9z"/>
	<path class="st13" d="M360.6,287.7c0,1.4,0,2.8,0,4.2c0,3.5,0,3.4-3.6,3.3c-1.3-0.1-1.5-0.5-1.5-1.6c0.1-3.3-0.1-6.7,0-10
		c0.1-2.3-0.6-3.5-3.1-3.2c-1.3,0.1-2.7-0.1-4,0c-1.5,0.1-1.8-0.5-1.8-1.9c0-1.5,0.7-1.6,1.8-1.5c2.2,0.1,4.5-0.1,6.7,0
		c3.8,0.2,5.3,1.8,5.4,5.7C360.6,284.4,360.6,286,360.6,287.7z"/>
	<path class="st12" d="M36.6,287.7c0-0.8,0-1.7,0-2.5c0-4.5,0-4.6-4.5-4.8c-1.5-0.1-1.4-0.8-1.5-1.9c-0.1-1.2,0.3-1.6,1.5-1.6
		c3.2,0.1,6.3,0,9.5,0c0.6,0,1.5-0.3,1.5,0.7c0,0.9,0.5,2.2-0.4,2.5c-1.6,0.5-1,1.5-1,2.3c-0.1,3.5-0.2,7,0,10.5
		c0.2,2.5-1.3,2-2.7,2.2c-1.8,0.1-2.6-0.3-2.4-2.3C36.7,291.2,36.6,289.5,36.6,287.7z"/>
	<path class="st14" d="M190,288c0,1.8-0.1,3.7,0,5.5c0.1,1.3-0.5,1.8-1.7,1.7c-1.7-0.1-3.3-0.1-5,0c-1.2,0-1.6-0.4-1.6-1.6
		c0-1.1,0.2-1.8,1.5-1.6c1.5,0.2,1.6-0.7,1.5-1.8c0-2.3,0-4.7,0-7c0-1.4,0.3-2.8-2-2.9c-1.2-0.1-0.5-1.5-0.6-2.3
		c-0.1-0.8,0.4-0.9,1.1-1c4.6-0.6,6.6,0.9,6.8,5.5C190,284.3,190,286.2,190,288z"/>
	<path class="st13" d="M141.2,292.8c-1.2,1.4-1.4,2.8-2.8,2.7c-0.8-0.1-2.4,0.7-2.3-0.9c0.1-0.9-1.6-3.3,1.5-2.7
		c1,0.2,1.2-0.9,1.2-1.6c0.1-2.8,0.1-5.6,0.1-8.4c0-0.8-0.4-1.5-1.4-1.4c-1.8,0.1-1.4-1.2-1.4-2.2c-0.1-1.6,1.1-1.2,1.9-1.2
		c5.1-0.1,6,0.7,6,5.8c0,3.5,0.1,7,0,10.5c0,0.7,1.2,1.9-0.7,1.9C142.2,295.2,140.6,295.6,141.2,292.8z"/>
	<path class="st12" d="M316.6,292.8c0,2.5-0.2,5,0,7.5c0.2,2.1-1.2,1.8-2.4,1.7c-1.1-0.1-2.8,1-2.8-1.5c0.1-5.1,0.1-10.1,0-15.2
		c-0.1-2.4,1.6-1.5,2.7-1.6c1.2-0.1,2.5-0.4,2.4,1.7C316.5,287.8,316.6,290.3,316.6,292.8z"/>
	<path class="st12" d="M148.4,286.2c0-2.7,0.1-5.5-0.1-8.2c0-0.8,0.1-0.9,0.8-1c4-0.6,4.4-0.2,4.4,3.7c0,4.2-0.1,8.5,0,12.7
		c0.1,2.4-1.5,1.6-2.7,1.7c-1.1,0-2.6,0.5-2.4-1.7c0.2-2.4,0-4.8,0-7.2C148.5,286.2,148.5,286.2,148.4,286.2z"/>
	<path class="st14" d="M118.5,285.6c0-2.5,0.1-5,0-7.5c-0.1-0.9,0-1.2,0.9-1.1c0.9,0,1.8,0.1,2.7,0c1.1-0.1,1.5,0.4,1.5,1.4
		c0,5.2,0.2,10.5,0,15.7c-0.1,2.1-2.1,0.8-3.2,1.1c-0.9,0.2-1.8,0.1-1.8-1.3c0.1-2.7,0-5.5,0-8.2
		C118.6,285.6,118.6,285.6,118.5,285.6z"/>
	<path class="st12" d="M172.9,286.3c0-2.7,0.1-5.5-0.1-8.2c0-0.8,0-1,0.7-1c1,0,2,0.1,3,0c1.3-0.1,1.5,0.7,1.5,1.7c0,5-0.1,10,0,15
		c0,2.1-1.4,1.5-2.4,1.4c-1-0.1-2.7,0.9-2.7-1.4c0-2.5,0-5,0-7.5C173,286.3,173,286.3,172.9,286.3z"/>
	<path class="st14" d="M307.7,286.2c0,2.4-0.1,4.8,0,7.2c0.1,1.9-1,1.8-2.2,1.7c-1.1-0.2-2.9,0.9-2.9-1.5c0-5.2-0.1-10.5-0.1-15.7
		c0-0.3-0.1-0.8,0.3-0.8c1.4-0.1,2.9-0.3,4.2,0c1.1,0.2,0.7,1.5,0.7,2.4C307.8,281.8,307.7,284,307.7,286.2z"/>
	<path class="st12" d="M18.1,289.2c0,0.9,0,1.8,0,2.7c0,3.3-0.8,3.9-4.1,3.2c-1-0.2-0.9-0.7-0.9-1.4c0-3.2,0-6.3,0-9.5
		c0-2.5,1.9-1,3-1.3c1-0.2,2.2-0.4,2.1,1.4C18,286.1,18.1,287.6,18.1,289.2z"/>
	<path class="st12" d="M251.1,288.8c0-1.2,0.1-2.3,0-3.5c-0.3-2,0.6-2.3,2.5-2.4c2.3-0.1,2.8,0.7,2.6,2.8c-0.2,2.6-0.2,5.1,0,7.7
		c0.2,2.3-1.4,1.7-2.6,1.8c-1.3,0-2.8,0.4-2.5-1.8C251.2,291.9,251.1,290.3,251.1,288.8z"/>
	<path class="st14" d="M351.7,289.2c0,1,0,2,0,3c0,2.9-1.6,3.9-4.3,3c-0.7-0.2-0.8-0.7-0.8-1.3c0-3.1,0-6.3,0-9.4
		c0-2.3,1.7-1.3,2.7-1.3c1-0.1,2.5-0.7,2.4,1.4C351.7,286,351.7,287.6,351.7,289.2z"/>
	<path class="st15" d="M52.5,282.7c0,0.6,0,1.2,0,1.7c0,3-1.2,3.8-4.2,3.1c-0.8-0.2-0.8-0.6-0.8-1.2c-0.1-2.7,0.2-5.5-0.3-8.2
		c-0.1-0.3,0-0.8,0.1-0.9c1.4-0.5,2.8-0.2,4.2-0.2c1.2,0.1,1,1.2,1.1,1.9C52.5,280.2,52.5,281.5,52.5,282.7z"/>
	<path class="st14" d="M126.8,277.1c6.3-0.2,5.3-0.9,5.4,4.6c0,1.1-0.1,2.2,0,3.2c0.3,2.1-0.5,2.6-2.6,2.6c-2.1,0-2.7-0.6-2.6-2.7
		C127.3,282.4,127.3,279.8,126.8,277.1z"/>
	<path class="st12" d="M353.7,228.5c-0.1,1.8,0.1,3.7-0.6,5.4c-0.5,1.3-1.4,2.1-2.8,2.1c-1.4,0-2.3-0.8-2.7-2.1
		c-1-3.4-1-6.9-0.2-10.3c0.3-1.5,1.3-2.6,3-2.5c1.7,0,2.5,1.1,2.9,2.6C353.8,225.2,353.6,226.9,353.7,228.5z"/>
	<path class="st16" d="M174.8,226c-0.2-3.1,1.2-5.2,3.3-5.3c2.3-0.1,3.6,1.8,3.5,5C181.5,228.7,175,228.5,174.8,226z"/>
	<path class="st17" d="M244.6,225.6c0.1-3.1,1.3-4.9,3.5-4.8c2.1,0,3.3,1.8,3.4,5C251.5,228.9,244.4,228.7,244.6,225.6z"/>
	<path class="st12" d="M44.8,228.6c0.1-1.7,0-3.5,0.6-5.2c0.5-1.6,1.6-2.4,3.3-2.4c1.7,0,2.7,0.9,3.1,2.4c0.9,3.6,0.8,7.2-0.1,10.8
		c-0.4,1.6-1.6,2.3-3.2,2.2c-1.5,0-2.4-0.8-2.9-2.2C44.9,232.4,45.1,230.4,44.8,228.6z"/>
	<path class="st12" d="M338.3,228.3c-0.1,1.9,0,3.8-0.6,5.7c-0.5,1.5-1.4,2.4-3,2.4c-1.6,0-2.7-0.7-3.1-2.3c-0.9-3.5-1-7-0.2-10.6
		c0.4-1.7,1.5-2.7,3.4-2.6c1.8,0.1,2.7,1.1,3.1,2.7C338.3,225.2,338.4,226.8,338.3,228.3z"/>
	<path class="st12" d="M22.5,228.4c0.1-1.6-0.2-3.4,0.5-5.1c0.6-1.6,1.6-2.4,3.4-2.3c1.7,0.1,2.7,1,3,2.5c0.9,3.5,0.7,7.1-0.1,10.6
		c-0.4,1.5-1.4,2.4-3,2.4c-1.8,0-2.7-0.9-3.2-2.5C22.4,232.1,22.5,230.3,22.5,228.4z"/>
	<path class="st18" d="M205.1,228.7c0.1,1.7,0,3.5-0.5,5.3c-0.5,1.6-1.4,2.6-3.2,2.5c-1.7,0-2.7-0.9-3-2.4c-0.8-3.5-1-7.1-0.1-10.6
		c0.4-1.6,1.5-2.5,3.3-2.4c1.7,0,2.6,0.9,3.1,2.3C205.2,225,205.1,226.8,205.1,228.7z"/>
	<path class="st19" d="M316.6,229.3c0,1,0,2.8-0.6,4.6c-0.5,1.6-1.4,2.6-3.2,2.6c-1.8,0-2.8-1-3.2-2.6c-0.7-3.3-0.9-6.7-0.1-10.1
		c0.4-1.6,1.3-2.6,3.1-2.7c1.9-0.1,2.9,0.9,3.5,2.5C316.7,225.1,316.5,226.8,316.6,229.3z"/>
</g>
</svg>
