<?xml version="1.0" encoding="utf-8"?>
<!-- Generator: Adobe Illustrator 21.1.0, SVG Export Plug-In . SVG Version: 6.00 Build 0)  -->
<svg version="1.1" id="Layer_1" xmlns="http://www.w3.org/2000/svg" xmlns:xlink="http://www.w3.org/1999/xlink" x="0px" y="0px"
	 viewBox="0 0 512 512" style="enable-background:new 0 0 512 512;" xml:space="preserve">
<style type="text/css">
	.st0{fill:#FFFFFF;}
</style>
<g>
	<g>
		<g>
			<path class="st0" d="M88.5,224.2c-3.9-4.4-10.7-4.7-15.1-0.8s-4.7,10.7-0.8,15.1c1.4,1.5,2.8,3.1,4.3,4.6
				c2.1,2.1,4.8,3.1,7.5,3.1s5.5-1,7.5-3.1c4.2-4.2,4.2-10.9,0-15.1C90.9,226.7,89.7,225.4,88.5,224.2z"/>
			<path class="st0" d="M77,77c-17.2,17.2-28.5,38.9-32.6,62.8c-4.1,23.3-1.1,47,8.6,68.5c1.8,3.9,5.7,6.3,9.7,6.3
				c1.5,0,3-0.3,4.4-0.9c5.4-2.4,7.8-8.7,5.3-14.1C56.1,163.3,64,120.2,92.1,92.1c4.2-4.2,4.2-10.9,0-15.1
				C87.9,72.9,81.2,72.9,77,77z"/>
			<path class="st0" d="M266.9,111.7c-2.4-5.4-8.7-7.8-14.1-5.3c-5.4,2.4-7.8,8.7-5.3,14.1c16.3,36.2,8.4,79.3-19.6,107.4
				c-4.2,4.2-4.2,10.9,0,15.1c2.1,2.1,4.8,3.1,7.5,3.1s5.5-1,7.5-3.1c17.2-17.2,28.5-38.9,32.6-62.8
				C279.6,156.9,276.6,133.2,266.9,111.7z"/>
			<path class="st0" d="M231.4,95.8c2.1,2.3,5,3.5,7.9,3.5c2.5,0,5.1-0.9,7.1-2.7c4.4-3.9,4.7-10.7,0.8-15.1
				c-1.4-1.6-2.9-3.1-4.3-4.6c-4.2-4.2-10.9-4.2-15.1,0c-4.2,4.2-4.2,10.9,0,15.1C229,93.3,230.2,94.6,231.4,95.8z"/>
			<path class="st0" d="M505.7,445.4L371.2,310.9l0,0l0,0l-28.6-28.6c-4-4-9.4-6.2-15.1-6.2c-1.9,0-3.7,0.3-5.5,0.7l-28.5-28.5
				c41.1-62.1,34.3-146.7-20.4-201.4C242.9,16.6,202.7,0,160,0C117.2,0,77,16.6,46.8,46.9c-62.4,62.4-62.4,163.9,0,226.3
				C77,303.4,117.2,320,160,320c31.9,0,62.3-9.3,88.3-26.5l28.5,28.5c-0.5,1.8-0.7,3.6-0.7,5.5c0,5.7,2.2,11.1,6.2,15.1l28.6,28.6
				l0,0l0,0l134.5,134.5c4,4,9.4,6.2,15.1,6.2s11.1-2.2,15.1-6.2l30.2-30.2c4-4,6.2-9.4,6.2-15.1C512,454.8,509.7,449.4,505.7,445.4
				z M257.9,258.2c-26.2,26.1-61,40.5-97.9,40.5c-37,0-71.9-14.4-98.1-40.6C7.8,204,7.8,116,61.9,61.9c26.2-26.2,61-40.6,98.1-40.6
				c37,0,71.9,14.4,98.1,40.6c54,54,54.1,141.9,0.1,196L257.9,258.2z M265.6,280.7l7.4-7.4l0.1-0.1l0.1-0.1l7.4-7.4l24.2,24.2
				L289.7,305L265.6,280.7z M297.3,327.5l30.2-30.2l21.1,21.1l-30.2,30.2L297.3,327.5z M460.5,490.7L460.5,490.7L460.5,490.7
				l-127-127l30.2-30.2l127,127L460.5,490.7z"/>
		</g>
	</g>
</g>
</svg>
