<?xml version="1.0" encoding="utf-8"?>
<!-- Generator: Adobe Illustrator 21.1.0, SVG Export Plug-In . SVG Version: 6.00 Build 0)  -->
<svg version="1.1" id="Layer_1" xmlns="http://www.w3.org/2000/svg" xmlns:xlink="http://www.w3.org/1999/xlink" x="0px" y="0px"
	 viewBox="0 0 512 512" style="enable-background:new 0 0 512 512;" xml:space="preserve">
<style type="text/css">
	.st0{fill:#333333;}
</style>
<g>
	<g>
		<path class="st0" d="M3,106.8l99.3,99.3c-8.9,6.8-14.1,12.7-14.6,13.3l-4.1,4.7l3.8,4.9c1.2,1.6,29.4,37.6,75.3,39.7
			c-8.2,6.4-12.9,11.7-13.3,12.3l-4.1,4.7l3.8,4.9c1.2,1.5,27.7,35.4,71.2,39.4c-6.9,5.6-10.8,10.1-11.2,10.6l-4.1,4.7l3.8,4.9
			c1.2,1.5,27.7,35.4,71.2,39.4c-6.9,5.6-10.8,10.1-11.2,10.6l-4.1,4.7l3.8,4.9c1.2,1.5,27.7,35.4,71.2,39.4
			c-6.9,5.6-10.8,10.1-11.2,10.6l-4.1,4.7l3.8,4.9c1.2,1.6,30.1,38.5,77,39.8c0.9,0,1.7,0,2.6,0c22.2,0,37.4-8.2,47.4-17l13.4,13.4
			c4,4,9.2,6,14.5,6c5.2,0,10.5-2,14.5-6l7.2-7.2c8-8,8-21,0-28.9l-13.3-13.3c9.9-10.2,20-26.9,19.3-52.4c-1.3-47-38.2-75.8-39.8-77
			l-4.9-3.8l-4.7,4.1c-0.5,0.4-5,4.4-10.6,11.2c-4-43.5-37.9-70-39.4-71.2l-4.9-3.8l-4.7,4.1c-0.5,0.4-5,4.4-10.6,11.2
			c-4-43.5-37.9-70-39.4-71.2l-4.9-3.8l-4.7,4.1c-0.5,0.4-5,4.4-10.6,11.2c-4-43.5-37.9-70-39.4-71.2l-4.9-3.8l-4.7,4.1
			c-0.6,0.5-5.9,5.2-12.3,13.3c-2.2-45.9-38.2-74.1-39.7-75.3l-4.9-3.8l-4.7,4.1c-0.6,0.5-6.6,5.7-13.4,14.8L107.8,2L97,12.8
			l101.6,101.6c-3.2,5.6-6.2,12-8.6,19.1c-3.2-5.8-7.6-11.6-13.3-17.3C149,88.5,112,86.9,99.3,87.3L12,0L6.6,5.4l-5.4,5.4l86.6,86.6
			c-0.5,11.2,0.1,50,28.8,78.8c5.6,5.6,11.2,9.8,16.8,13c-6.7,2.3-12.7,5.2-18.1,8.2L13.8,95.9L3,106.8z M181.4,180.9
			c-8.2,2.4-31.8,6.6-54-15.6c-21.2-21.2-24.2-50-24.4-62.8c12.8,0.2,41.6,3.2,62.8,24.4C187.9,149,183.7,172.8,181.4,180.9z
			 M228.9,213.6c-7.6-3.9-27.6-17.1-28.5-48.4c-0.8-30,16.7-52.9,25.4-62.4c9.2,9,28,30.9,28.9,60.9
			C255.6,194.9,236.3,209.3,228.9,213.6z M290.6,275.3c-7.6-3.9-27.6-17.1-28.5-48.4c-0.8-30,16.7-52.9,25.4-62.4
			c9.2,9,28,30.9,28.9,60.9C317.3,256.6,297.9,271,290.6,275.3z M350.3,335c-7.6-3.9-27.6-17.1-28.5-48.4
			c-0.8-30,16.7-52.9,25.4-62.4c9.2,9,28,30.9,28.9,60.9C377,316.4,357.7,330.7,350.3,335z M410,394.7c-7.6-3.9-27.6-17.1-28.5-48.4
			c-0.8-30,16.7-52.9,25.4-62.4c9.2,9,28,30.9,28.9,60.9C436.7,376,417.3,390.4,410,394.7z M466.1,481.8l14.5-14.5l13.4,13.4
			c2,2,2,5.3,0,7.3l-7.2,7.2c-2,2-5.3,2-7.3,0L466.1,481.8z M441.2,406c-0.8-30,16.7-52.9,25.4-62.4c9.2,9,28,30.9,28.9,60.9
			c0.6,20.2-7.2,33.3-14.8,41.2l0,0l-2.4,2.4c-3.3,3-6.4,5.1-8.5,6.4C462.1,450.5,442.1,437.3,441.2,406z M344.8,465.4
			c9.5-8.7,32.4-26.3,62.4-25.4c17.6,0.5,29.4,7,37.2,14c1.2,1.2,2.3,2.4,3.5,3.5c3.9,4.3,6.4,8.4,7.7,11.1
			c-1.2,2.1-3.3,5.1-6.3,8.4l-3.4,3.4c-8,7.3-20.9,14.5-40.3,14C375.7,493.5,353.8,474.6,344.8,465.4z M285.1,405.7
			c9.5-8.7,32.4-26.3,62.4-25.4c17.6,0.5,29.4,7,37.2,14c1.1,1.2,2.3,2.4,3.5,3.4c3.9,4.3,6.4,8.4,7.8,11.1
			c-4.3,7.4-18.6,26.7-49.9,25.8C316,433.8,294.1,414.9,285.1,405.7z M225.4,346c9.5-8.7,32.4-26.3,62.4-25.4
			c17.6,0.5,29.4,7,37.2,14c1.2,1.2,2.3,2.4,3.5,3.5c3.9,4.3,6.4,8.4,7.7,11.1c-4.3,7.4-18.6,26.6-49.9,25.8
			C256.3,374.1,234.4,355.2,225.4,346z M165.7,286.3c9.5-8.7,32.4-26.2,62.4-25.4c17.6,0.5,29.4,7,37.2,14c1.1,1.2,2.3,2.4,3.5,3.4
			c3.9,4.3,6.4,8.4,7.8,11.1c-4.3,7.4-18.6,26.7-49.9,25.8C196.6,314.4,174.7,295.5,165.7,286.3z M104,224.6
			c9.5-8.7,32.4-26.3,62.4-25.4c17.6,0.5,29.4,7,37.2,14c1.2,1.2,2.3,2.4,3.5,3.5c3.9,4.3,6.4,8.4,7.7,11.1
			c-4.3,7.4-18.6,26.7-49.9,25.8C134.9,252.7,113,233.8,104,224.6z"/>
	</g>
</g>
<g>
	<g>
		<rect x="145.8" y="434.6" class="st0" width="18.7" height="15.3"/>
	</g>
</g>
<g>
	<g>
		<polygon class="st0" points="71.5,333 71.5,348.3 90.2,348.3 90.2,340.6 90.2,333 		"/>
	</g>
</g>
<g>
	<g>
		<polygon class="st0" points="52.7,276.1 52.7,291.4 71.5,291.4 71.5,283.8 71.5,276.1 		"/>
	</g>
</g>
<g>
	<g>
		<polygon class="st0" points="275.6,84.7 275.6,100 294.3,100 294.3,92.4 294.3,84.7 		"/>
	</g>
</g>
<g>
	<g>
		<polygon class="st0" points="408.6,89.9 408.6,105.2 427.4,105.2 427.4,97.6 427.4,89.9 		"/>
	</g>
</g>
<g>
	<g>
		<polygon class="st0" points="354.1,24.6 354.1,39.9 372.8,39.9 372.8,32.2 372.8,24.6 		"/>
	</g>
</g>
<g>
	<g>
		<polygon class="st0" points="149,342.8 149,350.5 149,358.1 167.8,358.1 167.8,350.5 167.8,342.8 		"/>
	</g>
</g>
<g>
	<g>
		<polygon class="st0" points="428,176.1 428,183.7 428,191.4 446.7,191.4 446.7,183.7 446.7,176.1 		"/>
	</g>
</g>
</svg>
